<svg width="55" height="55" viewBox="0 0 55 55" fill="none" xmlns="http://www.w3.org/2000/svg">
<g id="ArrowCircleLeft">
<path id="Vector" d="M27.5001 5.15625C23.081 5.15625 18.761 6.46669 15.0866 8.92185C11.4122 11.377 8.54834 14.8666 6.8572 18.9494C5.16605 23.0322 4.72357 27.5248 5.58571 31.859C6.44785 36.1933 8.57589 40.1746 11.7007 43.2994C14.8255 46.4242 18.8068 48.5523 23.1411 49.4144C27.4753 50.2766 31.9679 49.8341 36.0507 48.1429C40.1335 46.4518 43.6231 43.5879 46.0783 39.9135C48.5334 36.2391 49.8439 31.9192 49.8439 27.5C49.8376 21.576 47.4816 15.8964 43.2926 11.7075C39.1037 7.51858 33.4241 5.16251 27.5001 5.15625ZM27.5001 46.4062C23.7608 46.4062 20.1055 45.2974 16.9964 43.22C13.8873 41.1425 11.464 38.1898 10.033 34.7351C8.60207 31.2804 8.22766 27.479 8.95716 23.8116C9.68666 20.1441 11.4873 16.7753 14.1314 14.1313C16.7755 11.4872 20.1443 9.68653 23.8117 8.95703C27.4792 8.22753 31.2806 8.60193 34.7352 10.0329C38.1899 11.4639 41.1427 13.8871 43.2201 16.9962C45.2976 20.1054 46.4064 23.7607 46.4064 27.5C46.4007 32.5125 44.407 37.3181 40.8626 40.8625C37.3182 44.4068 32.5126 46.4006 27.5001 46.4062ZM37.8126 27.5C37.8126 27.9558 37.6316 28.393 37.3092 28.7153C36.9869 29.0377 36.5497 29.2187 36.0939 29.2187H23.055L26.9974 33.159C27.1571 33.3187 27.2838 33.5083 27.3702 33.7169C27.4566 33.9255 27.5011 34.1492 27.5011 34.375C27.5011 34.6008 27.4566 34.8245 27.3702 35.0331C27.2838 35.2417 27.1571 35.4313 26.9974 35.591C26.8377 35.7507 26.6481 35.8774 26.4395 35.9638C26.2308 36.0502 26.0072 36.0947 25.7814 36.0947C25.5555 36.0947 25.3319 36.0502 25.1233 35.9638C24.9146 35.8774 24.7251 35.7507 24.5654 35.591L17.6904 28.716C17.5306 28.5564 17.4038 28.3668 17.3173 28.1582C17.2308 27.9495 17.1863 27.7259 17.1863 27.5C17.1863 27.2741 17.2308 27.0505 17.3173 26.8418C17.4038 26.6332 17.5306 26.4436 17.6904 26.284L24.5654 19.409C24.8879 19.0865 25.3253 18.9053 25.7814 18.9053C26.2375 18.9053 26.6749 19.0865 26.9974 19.409C27.3199 19.7315 27.5011 20.1689 27.5011 20.625C27.5011 21.0811 27.3199 21.5185 26.9974 21.841L23.055 25.7812H36.0939C36.5497 25.7812 36.9869 25.9623 37.3092 26.2847C37.6316 26.607 37.8126 27.0442 37.8126 27.5Z" fill="url(#paint0_linear_10_628)"/>
</g>
<defs>
<linearGradient id="paint0_linear_10_628" x1="5.15637" y1="49.8437" x2="50.4228" y2="49.2494" gradientUnits="userSpaceOnUse">
<stop stop-color="#5FE36A"/>
<stop offset="1" stop-color="#64FA9B"/>
</linearGradient>
</defs>
</svg>
