<svg width="55" height="55" viewBox="0 0 55 55" fill="none" xmlns="http://www.w3.org/2000/svg">
<g id="ArrowCircleRight">
<path id="Vector" d="M27.4998 5.15625C23.0806 5.15625 18.7607 6.46669 15.0862 8.92185C11.4118 11.377 8.54798 14.8666 6.85683 18.9494C5.16569 23.0322 4.72321 27.5248 5.58534 31.859C6.44748 36.1933 8.57552 40.1746 11.7003 43.2994C14.8252 46.4242 18.8065 48.5523 23.1407 49.4144C27.475 50.2766 31.9676 49.8341 36.0504 48.1429C40.1331 46.4518 43.6228 43.5879 46.0779 39.9135C48.5331 36.2391 49.8435 31.9192 49.8435 27.5C49.8373 21.576 47.4812 15.8964 43.2923 11.7075C39.1034 7.51858 33.4238 5.16251 27.4998 5.15625ZM27.4998 46.4062C23.7605 46.4062 20.1051 45.2974 16.996 43.22C13.8869 41.1425 11.4636 38.1898 10.0327 34.7351C8.6017 31.2804 8.22729 27.479 8.95679 23.8116C9.6863 20.1441 11.4869 16.7753 14.131 14.1313C16.7751 11.4872 20.1439 9.68653 23.8113 8.95703C27.4788 8.22753 31.2802 8.60193 34.7349 10.0329C38.1895 11.4639 41.1423 13.8871 43.2197 16.9962C45.2972 20.1054 46.406 23.7607 46.406 27.5C46.4003 32.5125 44.4066 37.3181 40.8622 40.8625C37.3178 44.4068 32.5123 46.4006 27.4998 46.4062ZM37.3095 26.284C37.4693 26.4436 37.5961 26.6332 37.6826 26.8418C37.7691 27.0505 37.8136 27.2741 37.8136 27.5C37.8136 27.7259 37.7691 27.9495 37.6826 28.1582C37.5961 28.3668 37.4693 28.5564 37.3095 28.716L30.4345 35.591C30.112 35.9135 29.6746 36.0947 29.2185 36.0947C28.7624 36.0947 28.325 35.9135 28.0025 35.591C27.68 35.2685 27.4988 34.8311 27.4988 34.375C27.4988 33.9189 27.68 33.4815 28.0025 33.159L31.9449 29.2187H18.906C18.4502 29.2187 18.013 29.0377 17.6907 28.7153C17.3683 28.393 17.1873 27.9558 17.1873 27.5C17.1873 27.0442 17.3683 26.607 17.6907 26.2847C18.013 25.9623 18.4502 25.7812 18.906 25.7812H31.9449L28.0025 21.841C27.68 21.5185 27.4988 21.0811 27.4988 20.625C27.4988 20.1689 27.68 19.7315 28.0025 19.409C28.325 19.0865 28.7624 18.9053 29.2185 18.9053C29.6746 18.9053 30.112 19.0865 30.4345 19.409L37.3095 26.284Z" fill="#60E772"/>
</g>
</svg>
