<svg width="123" height="20" viewBox="0 0 123 20" fill="none" xmlns="http://www.w3.org/2000/svg">
<g clip-path="url(#clip0_10_598)">
<path d="M10.256 5.30542L12.7229 10.3032L18.2397 11.1096L14.2478 14.9977L15.1899 20.4905L10.256 17.8958L5.32201 20.4905L6.26409 14.9977L2.27222 11.1096L7.78899 10.3032L10.256 5.30542Z" fill="#F3C620"/>
</g>
<g clip-path="url(#clip1_10_598)">
<path d="M35.8043 5.30542L38.2713 10.3032L43.7881 11.1096L39.7962 14.9977L40.7383 20.4905L35.8043 17.8958L30.8704 20.4905L31.8124 14.9977L27.8206 11.1096L33.3373 10.3032L35.8043 5.30542Z" fill="#F3C620"/>
</g>
<g clip-path="url(#clip2_10_598)">
<path d="M61.3525 5.30542L63.8195 10.3032L69.3363 11.1096L65.3444 14.9977L66.2865 20.4905L61.3525 17.8958L56.4186 20.4905L57.3607 14.9977L53.3688 11.1096L58.8855 10.3032L61.3525 5.30542Z" fill="#F3C620"/>
</g>
<g clip-path="url(#clip3_10_598)">
<path d="M86.9003 5.30542L89.3672 10.3032L94.884 11.1096L90.8921 14.9977L91.8342 20.4905L86.9003 17.8958L81.9663 20.4905L82.9084 14.9977L78.9165 11.1096L84.4333 10.3032L86.9003 5.30542Z" fill="#F3C620"/>
</g>
<g clip-path="url(#clip4_10_598)">
<path d="M112.448 5.30542L114.915 10.3032L120.432 11.1096L116.44 14.9977L117.382 20.4905L112.448 17.8958L107.515 20.4905L108.457 14.9977L104.465 11.1096L109.981 10.3032L112.448 5.30542Z" fill="#F3C620"/>
</g>
<defs>
<clipPath id="clip0_10_598">
<rect x="0.675415" y="0.515137" width="19.161" height="19.161" rx="5.3225" fill="white"/>
</clipPath>
<clipPath id="clip1_10_598">
<rect x="26.2238" y="0.515137" width="19.161" height="19.161" rx="5.3225" fill="white"/>
</clipPath>
<clipPath id="clip2_10_598">
<rect x="51.772" y="0.515137" width="19.161" height="19.161" rx="5.3225" fill="white"/>
</clipPath>
<clipPath id="clip3_10_598">
<rect x="77.3197" y="0.515137" width="19.161" height="19.161" rx="5.3225" fill="white"/>
</clipPath>
<clipPath id="clip4_10_598">
<rect x="102.868" y="0.515137" width="19.161" height="19.161" rx="5.3225" fill="white"/>
</clipPath>
</defs>
</svg>
