<svg width="39" height="38" viewBox="0 0 39 38" fill="none" xmlns="http://www.w3.org/2000/svg">
<g id="ChalkboardSimple" opacity="0.5">
<path id="Vector" d="M3.83384 24.7056V8.59348C3.83384 7.98302 4.08451 7.39757 4.53071 6.96591C4.9769 6.53425 5.58208 6.29175 6.21309 6.29175H32.3849C33.0159 6.29175 33.621 6.53425 34.0672 6.96591C34.5134 7.39757 34.7641 7.98302 34.7641 8.59348V24.7056C34.7641 25.0108 34.6388 25.3035 34.4157 25.5193C34.1926 25.7352 33.89 25.8564 33.5745 25.8564C33.259 25.8564 32.9564 25.7352 32.7333 25.5193C32.5102 25.3035 32.3849 25.0108 32.3849 24.7056V8.59348H6.21309V24.7056C6.21309 25.0108 6.08776 25.3035 5.86466 25.5193C5.64156 25.7352 5.33897 25.8564 5.02347 25.8564C4.70796 25.8564 4.40537 25.7352 4.18227 25.5193C3.95918 25.3035 3.83384 25.0108 3.83384 24.7056ZM37.1434 29.309C37.1434 29.6142 37.018 29.907 36.7949 30.1228C36.5718 30.3386 36.2692 30.4599 35.9537 30.4599H2.64422C2.32871 30.4599 2.02612 30.3386 1.80302 30.1228C1.57992 29.907 1.45459 29.6142 1.45459 29.309C1.45459 29.0038 1.57992 28.7111 1.80302 28.4952C2.02612 28.2794 2.32871 28.1582 2.64422 28.1582H16.9197V24.7056C16.9197 24.4003 17.0451 24.1076 17.2682 23.8918C17.4913 23.676 17.7938 23.5547 18.1093 23.5547H27.6264C27.9419 23.5547 28.2444 23.676 28.4675 23.8918C28.6906 24.1076 28.816 24.4003 28.816 24.7056V28.1582H35.9537C36.2692 28.1582 36.5718 28.2794 36.7949 28.4952C37.018 28.7111 37.1434 29.0038 37.1434 29.309ZM19.299 28.1582H26.4367V25.8564H19.299V28.1582Z" fill="url(#paint0_linear_10_585)"/>
</g>
<defs>
<linearGradient id="paint0_linear_10_585" x1="1.45459" y1="30.4599" x2="37.5983" y2="29.7591" gradientUnits="userSpaceOnUse">
<stop stop-color="#5FE36A"/>
<stop offset="1" stop-color="#64FA9B"/>
</linearGradient>
</defs>
</svg>
