<svg width="44" height="44" viewBox="0 0 44 44" fill="none" xmlns="http://www.w3.org/2000/svg">
<g id="FacebookLogo">
<path id="Vector" d="M22.3144 4.15836C18.8598 4.15836 15.4828 5.18276 12.6104 7.10203C9.73802 9.02131 7.49926 11.7492 6.17724 14.9409C4.85522 18.1325 4.50932 21.6445 5.18328 25.0327C5.85724 28.4209 7.52079 31.5332 9.96356 33.976C12.4063 36.4187 15.5186 38.0823 18.9068 38.7562C22.295 39.4302 25.807 39.0843 28.9987 37.7623C32.1903 36.4403 34.9182 34.2015 36.8375 31.3291C38.7568 28.4567 39.7812 25.0797 39.7812 21.6251C39.7763 16.9941 37.9345 12.5542 34.6599 9.27965C31.3853 6.00506 26.9454 4.16325 22.3144 4.15836ZM23.658 36.3425V25.6559H27.6888C28.0451 25.6559 28.3869 25.5143 28.6389 25.2624C28.8908 25.0104 29.0324 24.6686 29.0324 24.3123C29.0324 23.956 28.8908 23.6142 28.6389 23.3622C28.3869 23.1103 28.0451 22.9687 27.6888 22.9687H23.658V18.9379C23.658 18.2252 23.9411 17.5417 24.4451 17.0378C24.949 16.5338 25.6325 16.2507 26.3452 16.2507H29.0324C29.3887 16.2507 29.7305 16.1092 29.9825 15.8572C30.2344 15.6052 30.376 15.2635 30.376 14.9071C30.376 14.5508 30.2344 14.209 29.9825 13.9571C29.7305 13.7051 29.3887 13.5635 29.0324 13.5635H26.3452C24.9198 13.5635 23.5528 14.1298 22.5449 15.1377C21.5371 16.1455 20.9708 17.5125 20.9708 18.9379V22.9687H16.94C16.5837 22.9687 16.2419 23.1103 15.99 23.3622C15.738 23.6142 15.5964 23.956 15.5964 24.3123C15.5964 24.6686 15.738 25.0104 15.99 25.2624C16.2419 25.5143 16.5837 25.6559 16.94 25.6559H20.9708V36.3425C17.1832 35.9968 13.6747 34.2042 11.1751 31.3376C8.67542 28.471 7.37711 24.7511 7.55016 20.9517C7.72322 17.1523 9.35434 13.5658 12.1042 10.9383C14.8541 8.31084 18.5111 6.84461 22.3144 6.84461C26.1178 6.84461 29.7747 8.31084 32.5246 10.9383C35.2745 13.5658 36.9056 17.1523 37.0787 20.9517C37.2517 24.7511 35.9534 28.471 33.4538 31.3376C30.9541 34.2042 27.4456 35.9968 23.658 36.3425Z" fill="black"/>
</g>
</svg>
