<svg width="39" height="39" viewBox="0 0 39 39" fill="none" xmlns="http://www.w3.org/2000/svg">
<g id="Barbell" opacity="0.5">
<path id="Vector" d="M37.392 17.8358H36.2028V13.0828C36.2028 12.4526 35.9523 11.8481 35.5062 11.4024C35.0602 10.9567 34.4553 10.7063 33.8245 10.7063H31.4462V9.5181C31.4462 8.88781 31.1957 8.28334 30.7497 7.83766C30.3036 7.39198 29.6987 7.1416 29.068 7.1416H25.5005C24.8698 7.1416 24.2648 7.39198 23.8188 7.83766C23.3728 8.28334 23.1222 8.88781 23.1222 9.5181V17.8358H15.9873V9.5181C15.9873 8.88781 15.7368 8.28334 15.2908 7.83766C14.8447 7.39198 14.2398 7.1416 13.6091 7.1416H10.0416C9.41085 7.1416 8.80592 7.39198 8.35991 7.83766C7.91389 8.28334 7.66332 8.88781 7.66332 9.5181V10.7063H5.28503C4.65427 10.7063 4.04934 10.9567 3.60332 11.4024C3.1573 11.8481 2.90674 12.4526 2.90674 13.0828V17.8358H1.71759C1.40221 17.8358 1.09974 17.961 0.876735 18.1839C0.653727 18.4067 0.528442 18.7089 0.528442 19.0241C0.528442 19.3392 0.653727 19.6415 0.876735 19.8643C1.09974 20.0871 1.40221 20.2123 1.71759 20.2123H2.90674V24.9653C2.90674 25.5956 3.1573 26.2001 3.60332 26.6457C4.04934 27.0914 4.65427 27.3418 5.28503 27.3418H7.66332V28.5301C7.66332 29.1603 7.91389 29.7648 8.35991 30.2105C8.80592 30.6562 9.41085 30.9065 10.0416 30.9065H13.6091C14.2398 30.9065 14.8447 30.6562 15.2908 30.2105C15.7368 29.7648 15.9873 29.1603 15.9873 28.5301V20.2123H23.1222V28.5301C23.1222 29.1603 23.3728 29.7648 23.8188 30.2105C24.2648 30.6562 24.8698 30.9065 25.5005 30.9065H29.068C29.6987 30.9065 30.3036 30.6562 30.7497 30.2105C31.1957 29.7648 31.4462 29.1603 31.4462 28.5301V27.3418H33.8245C34.4553 27.3418 35.0602 27.0914 35.5062 26.6457C35.9523 26.2001 36.2028 25.5956 36.2028 24.9653V20.2123H37.392C37.7074 20.2123 38.0098 20.0871 38.2328 19.8643C38.4558 19.6415 38.5811 19.3392 38.5811 19.0241C38.5811 18.7089 38.4558 18.4067 38.2328 18.1839C38.0098 17.961 37.7074 17.8358 37.392 17.8358ZM5.28503 24.9653V13.0828H7.66332V24.9653H5.28503ZM13.6091 28.5301H10.0416V9.5181H13.6091V28.5301ZM29.068 28.5301H25.5005V9.5181H29.068V26.1268C29.068 26.1357 29.068 26.1446 29.068 26.1536C29.068 26.1625 29.068 26.1714 29.068 26.1803V28.5301ZM33.8245 24.9653H31.4462V13.0828H33.8245V24.9653Z" fill="url(#paint0_linear_10_556)"/>
</g>
<defs>
<linearGradient id="paint0_linear_10_556" x1="0.528442" y1="30.9065" x2="39.0637" y2="30.0964" gradientUnits="userSpaceOnUse">
<stop stop-color="#5FE36A"/>
<stop offset="1" stop-color="#64FA9B"/>
</linearGradient>
</defs>
</svg>
