<svg width="44" height="44" viewBox="0 0 44 44" fill="none" xmlns="http://www.w3.org/2000/svg">
<g id="InstagramLogo">
<path id="Vector" d="M22.145 13.5635C20.5505 13.5635 18.9919 14.0363 17.6662 14.9222C16.3405 15.808 15.3072 17.067 14.6971 18.5401C14.0869 20.0131 13.9272 21.6341 14.2383 23.1978C14.5494 24.7616 15.3171 26.1981 16.4446 27.3255C17.572 28.4529 19.0084 29.2207 20.5722 29.5318C22.136 29.8428 23.757 29.6832 25.23 29.073C26.7031 28.4629 27.9621 27.4296 28.8479 26.1039C29.7338 24.7782 30.2066 23.2195 30.2066 21.6251C30.2043 19.4877 29.3543 17.4385 27.8429 15.9272C26.3316 14.4158 24.2824 13.5658 22.145 13.5635ZM22.145 26.9995C21.082 26.9995 20.0429 26.6843 19.1591 26.0938C18.2753 25.5032 17.5865 24.6638 17.1797 23.6818C16.7729 22.6998 16.6665 21.6192 16.8739 20.5766C17.0812 19.5341 17.5931 18.5765 18.3447 17.8248C19.0963 17.0732 20.054 16.5614 21.0965 16.354C22.139 16.1466 23.2196 16.2531 24.2017 16.6598C25.1837 17.0666 26.0231 17.7554 26.6136 18.6393C27.2042 19.5231 27.5194 20.5622 27.5194 21.6251C27.5194 23.0505 26.9531 24.4175 25.9452 25.4254C24.9373 26.4333 23.5704 26.9995 22.145 26.9995ZM30.2066 4.15836H14.0834C11.5898 4.16102 9.19912 5.15278 7.43588 6.91601C5.67265 8.67925 4.68089 11.0699 4.67822 13.5635V29.6867C4.68089 32.1803 5.67265 34.571 7.43588 36.3342C9.19912 38.0974 11.5898 39.0892 14.0834 39.0919H30.2066C32.7001 39.0892 35.0908 38.0974 36.8541 36.3342C38.6173 34.571 39.6091 32.1803 39.6117 29.6867V13.5635C39.6091 11.0699 38.6173 8.67925 36.8541 6.91601C35.0908 5.15278 32.7001 4.16102 30.2066 4.15836ZM36.9245 29.6867C36.9245 31.4684 36.2168 33.1772 34.9569 34.437C33.697 35.6969 31.9883 36.4047 30.2066 36.4047H14.0834C12.3017 36.4047 10.5929 35.6969 9.33307 34.437C8.0732 33.1772 7.36542 31.4684 7.36542 29.6867V13.5635C7.36542 11.7818 8.0732 10.0731 9.33307 8.8132C10.5929 7.55333 12.3017 6.84555 14.0834 6.84555H30.2066C31.9883 6.84555 33.697 7.55333 34.9569 8.8132C36.2168 10.0731 36.9245 11.7818 36.9245 13.5635V29.6867ZM32.8938 12.8917C32.8938 13.2903 32.7755 13.68 32.5541 14.0114C32.3326 14.3429 32.0179 14.6012 31.6496 14.7537C31.2813 14.9063 30.8761 14.9462 30.4852 14.8684C30.0942 14.7906 29.7351 14.5987 29.4533 14.3168C29.1714 14.035 28.9795 13.6759 28.9017 13.2849C28.8239 12.894 28.8638 12.4887 29.0164 12.1205C29.1689 11.7522 29.4272 11.4374 29.7587 11.216C30.0901 10.9945 30.4797 10.8763 30.8784 10.8763C31.4129 10.8763 31.9255 11.0887 32.3035 11.4666C32.6814 11.8446 32.8938 12.3572 32.8938 12.8917Z" fill="black"/>
</g>
</svg>
