<svg width="39" height="39" viewBox="0 0 39 39" fill="none" xmlns="http://www.w3.org/2000/svg">
<g id="Leaf" opacity="0.5">
<path id="Vector" d="M33.4137 5.95808C33.3967 5.66744 33.2735 5.39316 33.0673 5.1873C32.8612 4.98144 32.5865 4.85834 32.2955 4.84137C20.9747 4.17758 11.9068 7.58117 8.04051 13.9666C6.70034 16.1509 6.03994 18.6834 6.14306 21.243C6.22782 23.6071 6.9178 25.995 8.19367 28.3487L5.29247 31.2444C5.06925 31.4673 4.94385 31.7697 4.94385 32.0849C4.94385 32.4002 5.06925 32.7025 5.29247 32.9254C5.5157 33.1483 5.81845 33.2736 6.13413 33.2736C6.44982 33.2736 6.75257 33.1483 6.97579 32.9254L9.87551 30.0282C12.231 31.3008 14.6236 31.9899 16.9895 32.0745C17.155 32.0805 17.3201 32.0834 17.4847 32.0834C19.8814 32.0898 22.2327 31.4307 24.2759 30.1797C30.6702 26.3187 34.0799 17.2648 33.4137 5.95808ZM23.0491 28.1482C19.6661 30.1945 15.6615 30.2272 11.6421 28.2626L24.8217 15.1026C24.9322 14.9922 25.0199 14.8612 25.0797 14.717C25.1395 14.5728 25.1703 14.4182 25.1703 14.2621C25.1703 14.106 25.1395 13.9515 25.0797 13.8072C25.0199 13.663 24.9322 13.532 24.8217 13.4216C24.7111 13.3112 24.5799 13.2237 24.4355 13.1639C24.2911 13.1042 24.1363 13.0735 23.98 13.0735C23.8237 13.0735 23.6689 13.1042 23.5245 13.1639C23.3801 13.2237 23.2489 13.3112 23.1383 13.4216L9.96027 26.589C7.99887 22.5795 8.02713 18.5701 10.0748 15.1977C13.3596 9.78191 21.168 6.8164 31.088 7.16983C31.4434 17.0687 28.4723 24.8679 23.0491 28.1482Z" fill="url(#paint0_linear_10_569)"/>
</g>
<defs>
<linearGradient id="paint0_linear_10_569" x1="4.94385" y1="33.2735" x2="33.8659" y2="32.8933" gradientUnits="userSpaceOnUse">
<stop stop-color="#5FE36A"/>
<stop offset="1" stop-color="#64FA9B"/>
</linearGradient>
</defs>
</svg>
