<svg width="175" height="114" viewBox="0 0 175 114" fill="none" xmlns="http://www.w3.org/2000/svg">
<path d="M72.0144 8.59011V2.07714C72.0144 0.929968 72.9444 0 74.0915 0H114.684C115.831 0 116.761 0.929966 116.761 2.07714V8.59011C116.761 9.73729 115.831 10.6673 114.684 10.6673H74.0915C72.9444 10.6673 72.0144 9.73729 72.0144 8.59011Z" fill="#47464A"/>
<path d="M72.0144 111.928V105.415C72.0144 104.267 72.9444 103.337 74.0915 103.337H114.684C115.831 103.337 116.761 104.267 116.761 105.415V111.928C116.761 113.075 115.831 114.005 114.684 114.005H74.0915C72.9444 114.005 72.0144 113.075 72.0144 111.928Z" fill="#47464A"/>
<path d="M58.1411 20.4828V18.3777C58.1411 15.5097 60.466 13.1848 63.334 13.1848H124.916C127.784 13.1848 130.109 15.5097 130.109 18.3777V20.4828C130.109 23.3507 127.784 25.6756 124.916 25.6756H63.334C60.466 25.6756 58.1411 23.3507 58.1411 20.4828Z" fill="white"/>
<path d="M58.1411 95.4274V93.3222C58.1411 90.4543 60.466 88.1294 63.334 88.1294H124.916C127.784 88.1294 130.109 90.4543 130.109 93.3222V95.4274C130.109 98.2953 127.784 100.62 124.916 100.62H63.334C60.466 100.62 58.1411 98.2953 58.1411 95.4274Z" fill="white"/>
<path d="M84.0288 81.4259V32.2973C84.0288 31.6675 84.5394 31.157 85.1692 31.157H103.081C103.711 31.157 104.221 31.6675 104.221 32.2973V81.4259C104.221 82.0557 103.711 82.5662 103.081 82.5662H85.1692C84.5394 82.5662 84.0288 82.0557 84.0288 81.4259Z" fill="white"/>
<path d="M16.7807 59.0898C16.7807 57.0862 17.1884 55.3389 18.0039 53.8478C18.8193 52.3335 19.9492 51.1686 21.3937 50.3532C22.8381 49.5145 24.4923 49.0951 26.3561 49.0951C28.7558 49.0951 30.7361 49.7008 32.297 50.9123C33.8812 52.1005 34.9413 53.7779 35.4771 55.9446H30.2002C29.9206 55.1059 29.443 54.4536 28.7674 53.9876C28.1151 53.4984 27.2996 53.2537 26.3211 53.2537C24.9233 53.2537 23.8166 53.7663 23.0012 54.7914C22.1858 55.7932 21.7781 57.226 21.7781 59.0898C21.7781 60.9303 22.1858 62.3632 23.0012 63.3882C23.8166 64.3901 24.9233 64.891 26.3211 64.891C28.3014 64.891 29.5945 64.0056 30.2002 62.235H35.4771C34.9413 64.3318 33.8812 65.9976 32.297 67.2324C30.7128 68.4671 28.7325 69.0845 26.3561 69.0845C24.4923 69.0845 22.8381 68.6768 21.3937 67.8614C19.9492 67.0227 18.8193 65.8578 18.0039 64.3668C17.1884 62.8524 16.7807 61.0934 16.7807 59.0898ZM37.8033 59.0199C37.8033 57.0629 38.1877 55.3272 38.9565 53.8129C39.7486 52.2985 40.8087 51.1337 42.1366 50.3182C43.4879 49.5028 44.9906 49.0951 46.6447 49.0951C48.0892 49.0951 49.3473 49.3863 50.419 49.9688C51.514 50.5512 52.3876 51.2851 53.04 52.1704V49.4096H57.9674V68.77H53.04V65.9393C52.4109 66.848 51.5373 67.6051 50.419 68.2109C49.324 68.7933 48.0543 69.0845 46.6098 69.0845C44.979 69.0845 43.4879 68.6652 42.1366 67.8265C40.8087 66.9877 39.7486 65.8112 38.9565 64.2969C38.1877 62.7592 37.8033 61.0002 37.8033 59.0199ZM53.04 59.0898C53.04 57.9016 52.807 56.8882 52.341 56.0495C51.8751 55.1875 51.246 54.5351 50.4539 54.0925C49.6618 53.6265 48.8114 53.3935 47.9028 53.3935C46.9942 53.3935 46.1555 53.6149 45.3867 54.0575C44.6178 54.5002 43.9888 55.1525 43.4996 56.0145C43.0336 56.8532 42.8006 57.855 42.8006 59.0199C42.8006 60.1848 43.0336 61.2099 43.4996 62.0952C43.9888 62.9572 44.6178 63.6212 45.3867 64.0872C46.1788 64.5531 47.0175 64.7861 47.9028 64.7861C48.8114 64.7861 49.6618 64.5648 50.4539 64.1221C51.246 63.6562 51.8751 63.0038 52.341 62.1651C52.807 61.3031 53.04 60.278 53.04 59.0898ZM73.4744 49.1301C75.7809 49.1301 77.6447 49.8639 79.0659 51.3317C80.487 52.7761 81.1976 54.803 81.1976 57.4124V68.77H76.3051V58.0764C76.3051 56.5387 75.9207 55.3622 75.1519 54.5468C74.383 53.7081 73.3346 53.2887 72.0067 53.2887C70.6554 53.2887 69.5837 53.7081 68.7916 54.5468C68.0228 55.3622 67.6383 56.5387 67.6383 58.0764V68.77H62.7458V49.4096H67.6383V51.8209C68.2907 50.9822 69.1177 50.3299 70.1196 49.8639C71.1446 49.3747 72.2629 49.1301 73.4744 49.1301ZM103.848 58.6705C103.848 59.3694 103.801 59.9984 103.708 60.5576H89.5545C89.671 61.9554 90.1602 63.0504 91.0222 63.8426C91.8842 64.6347 92.9443 65.0307 94.2024 65.0307C96.0196 65.0307 97.3126 64.2503 98.0814 62.6893H103.358C102.799 64.5531 101.728 66.0908 100.143 67.3023C98.559 68.4904 96.6137 69.0845 94.3072 69.0845C92.4434 69.0845 90.766 68.6768 89.2749 67.8614C87.8071 67.0227 86.6539 65.8462 85.8152 64.3318C84.9998 62.8175 84.5921 61.0701 84.5921 59.0898C84.5921 57.0862 84.9998 55.3272 85.8152 53.8129C86.6306 52.2985 87.7722 51.1337 89.24 50.3182C90.7077 49.5028 92.3968 49.0951 94.3072 49.0951C96.1477 49.0951 97.7902 49.4912 99.2347 50.2833C100.702 51.0754 101.832 52.2054 102.624 53.6731C103.44 55.1176 103.848 56.7834 103.848 58.6705ZM98.7804 57.2726C98.7571 56.0145 98.3028 55.0127 97.4175 54.2672C96.5321 53.4984 95.4488 53.114 94.1674 53.114C92.9559 53.114 91.9308 53.4867 91.0921 54.2323C90.2767 54.9545 89.7758 55.9679 89.5894 57.2726H98.7804ZM114.827 69.0845C113.243 69.0845 111.822 68.805 110.564 68.2458C109.306 67.6634 108.304 66.8829 107.559 65.9044C106.836 64.9259 106.44 63.8426 106.37 62.6544H111.298C111.391 63.3999 111.752 64.0173 112.381 64.5065C113.033 64.9958 113.837 65.2404 114.792 65.2404C115.724 65.2404 116.447 65.054 116.959 64.6813C117.495 64.3085 117.763 63.8309 117.763 63.2485C117.763 62.6194 117.437 62.1535 116.784 61.8506C116.155 61.5244 115.142 61.175 113.744 60.8022C112.3 60.4527 111.111 60.0916 110.179 59.7189C109.271 59.3461 108.479 58.7753 107.803 58.0065C107.151 57.2377 106.825 56.2009 106.825 54.8962C106.825 53.8245 107.127 52.846 107.733 51.9607C108.362 51.0754 109.248 50.3765 110.389 49.8639C111.554 49.3514 112.917 49.0951 114.478 49.0951C116.784 49.0951 118.625 49.6776 119.999 50.8424C121.374 51.984 122.131 53.5333 122.271 55.4903H117.588C117.518 54.7215 117.192 54.1158 116.61 53.6731C116.051 53.2072 115.293 52.9742 114.338 52.9742C113.453 52.9742 112.766 53.1373 112.276 53.4634C111.81 53.7896 111.577 54.2439 111.577 54.8263C111.577 55.4787 111.904 55.9796 112.556 56.329C113.208 56.6552 114.222 56.993 115.596 57.3425C116.994 57.692 118.147 58.0531 119.056 58.4258C119.965 58.7986 120.745 59.381 121.397 60.1732C122.073 60.942 122.422 61.9671 122.446 63.2485C122.446 64.3668 122.131 65.3686 121.502 66.2539C120.896 67.1392 120.011 67.8381 118.846 68.3507C117.705 68.8399 116.365 69.0845 114.827 69.0845ZM135.338 53.4285H131.948V68.77H126.986V53.4285H124.784V49.4096H126.986V48.4311C126.986 46.0548 127.662 44.3074 129.013 43.1891C130.364 42.0708 132.403 41.5467 135.129 41.6165V45.7402C133.94 45.7169 133.113 45.915 132.647 46.3343C132.181 46.7537 131.948 47.5109 131.948 48.6059V49.4096H135.338V53.4285ZM140.99 47.1032C140.128 47.1032 139.406 46.8352 138.823 46.2994C138.264 45.7402 137.985 45.053 137.985 44.2375C137.985 43.4221 138.264 42.7465 138.823 42.2106C139.406 41.6515 140.128 41.3719 140.99 41.3719C141.852 41.3719 142.563 41.6515 143.122 42.2106C143.704 42.7465 143.995 43.4221 143.995 44.2375C143.995 45.053 143.704 45.7402 143.122 46.2994C142.563 46.8352 141.852 47.1032 140.99 47.1032ZM143.401 49.4096V68.77H138.509V49.4096H143.401ZM153.931 53.4285V62.7942C153.931 63.4465 154.083 63.9241 154.386 64.227C154.712 64.5065 155.248 64.6463 155.993 64.6463H158.265V68.77H155.19C151.066 68.77 149.004 66.7664 149.004 62.7592V53.4285H146.698V49.4096H149.004V44.6219H153.931V49.4096H158.265V53.4285H153.931Z" fill="#1A191E"/>
</svg>
