<svg width="225" height="156" viewBox="0 0 225 156" fill="none" xmlns="http://www.w3.org/2000/svg">
<g id="undraw_healthy_lifestyle_re_ifwg 1" clip-path="url(#clip0_16_752)">
<path id="Vector" d="M59.981 15.3353L65.6965 20.7247L63.0741 24.42L57.234 18.507C56.9808 18.4898 56.7259 18.436 56.4763 18.3411C55.1192 17.8246 54.4377 16.3054 54.9541 14.948C55.4704 13.5906 56.9892 12.9089 58.3463 13.4254C59.2118 13.7548 59.8006 14.4924 59.981 15.3353Z" fill="#FFB6B6"/>
<g id="Group">
<path id="Vector_2" d="M41.2469 150.921L45.3701 150.92L47.3315 135.013L41.2461 135.013L41.2469 150.921Z" fill="#FFB6B6"/>
<path id="Vector_3" d="M41.1018 155.223L53.7811 155.222V155.062C53.7809 152.336 51.5714 150.126 48.8459 150.126L46.5296 148.368L42.2084 150.126L41.1016 150.126L41.1018 155.223Z" fill="#2F2E41"/>
</g>
<g id="Group_2">
<path id="Vector_4" d="M50.8572 146.566L54.7218 148.003L62.1047 133.777L56.4009 131.656L50.8572 146.566Z" fill="#FFB6B6"/>
<path id="Vector_5" d="M49.2217 150.547L61.1057 154.968L61.1616 154.818C62.1116 152.263 60.811 149.421 58.2566 148.47L56.6981 146.016L52.0353 146.156L50.998 145.77L49.2217 150.547Z" fill="#2F2E41"/>
</g>
<path id="Vector_6" d="M58.6661 68.5763L67.034 116.18L59.1891 145.737L51.8672 142.859L52.9132 140.505L51.3442 137.367L53.6977 121.673L53.7013 111.643L47.1603 91.5936L45.3298 124.55L48.2063 141.028L47.6647 145.737L39.0539 146.783L40.0999 143.382L34.6084 126.904L35.6544 123.765L28.3325 85.3161L30.163 73.0228L58.6661 68.5763Z" fill="#2F2E41"/>
<path id="Vector_7" d="M33.9548 21.6262H44.3797L47.5526 26.8574L50.9521 26.0727L52.6745 26.8574L60.366 28.4268L58.0125 42.2895L57.4895 58.2446L57.751 65.0452C60.5004 67.0545 59.7907 69.8236 59.181 72.9118C59.181 72.9118 32.9088 80.0983 28.7249 77.803V74.8372L31.2091 54.9751L22.0567 32.481C21.6551 29.4015 24.9078 28.5695 27.9404 27.9037L31.0784 26.8574L33.9548 21.6262Z" fill="#60E772"/>
<path id="Vector_8" d="M58.0124 30.2577L60.3659 28.4268L65.7204 30.2577L63.7654 27.119V25.6063L60.6274 24.765L60.3659 22.4109L58.0124 20.5645L61.8664 16.116L64.6806 18.4885L66.3803 18.4875L68.7194 20.8271L77.1051 32.2795C78.8879 34.7143 78.3751 38.2016 75.8688 39.8821C74.905 40.5283 73.747 40.9817 72.3948 40.9817H57.5667L58.0124 30.2577Z" fill="#60E772"/>
<path id="Vector_9" d="M40.1535 19.99C44.4805 19.99 47.9882 16.4815 47.9882 12.1535C47.9882 7.82545 44.4805 4.31689 40.1535 4.31689C35.8266 4.31689 32.3188 7.82545 32.3188 12.1535C32.3188 16.4815 35.8266 19.99 40.1535 19.99Z" fill="#FFB6B6"/>
<g id="Group_3">
<path id="Vector_10" d="M25.0934 82.2549L24.9074 74.4005L29.3792 73.6683L29.2803 81.9795C29.4461 82.1717 29.5871 82.3908 29.695 82.6351C30.2819 83.9636 29.6808 85.5164 28.3524 86.1033C27.024 86.6902 25.4714 86.089 24.8845 84.7606C24.5102 83.9133 24.6208 82.9759 25.0934 82.2549Z" fill="#FFB6B6"/>
<path id="Vector_11" d="M24.9614 29.971C23.1976 29.8699 21.7715 31.3889 21.9832 33.1433L17.7044 56.9902L17.0239 58.4232L17.8043 59.2292L17.9684 61.0771L24.4831 78.2872L32.6242 78.5885L29.5913 42.5844L27.4831 31.8864C27.1102 30.7944 26.1132 30.0371 24.9614 29.971Z" fill="#60E772"/>
</g>
<g id="Group_4">
<path id="Vector_12" d="M33.2227 78.3537C33.301 84.0083 30.8693 85.2165 26.9468 84.0333C23.6283 83.0323 20.6709 81.8206 20.6709 78.3537C20.6709 74.8867 22.6882 69.7596 26.9468 71.4784C30.7572 69.3859 35.1342 74.3447 33.2227 78.3537Z" fill="#CC173B"/>
<path id="Vector_13" d="M26.7209 71.6193C26.22 70.7076 26.1856 69.5937 26.6509 68.6602C27.0654 67.8286 27.8862 67.2095 28.7909 67.0148C29.2833 66.9088 29.4937 67.6651 28.9995 67.7714C28.2966 67.9227 27.8852 70.8145 27.5482 71.4534C27.1856 72.1407 27.0276 70.5484 27.3984 71.2233C27.6416 71.6661 26.9643 72.0625 26.7209 71.6193Z" fill="#3F3D56"/>
</g>
<g id="Group_5">
<path id="Vector_14" d="M64.6024 10.0865C64.6024 13.5535 62.249 16.9493 58.3265 15.7661C55.008 14.7651 50.779 15.1801 54.0667 9.33383C49.6831 7.14148 54.0678 1.49243 58.3265 3.21125C62.1369 1.11877 64.6024 6.61961 64.6024 10.0865Z" fill="#CC173B"/>
<path id="Vector_15" d="M58.1008 3.35213C56.5742 3.70937 57.3588 3.86314 58.0308 1.8546C58.3256 0.973463 59.2661 0.403947 60.1708 0.20919C60.6632 0.103201 60.8736 0.859461 60.3794 0.965841C59.6765 1.11714 59.0727 1.55847 58.7356 2.19734C58.373 2.88464 58.4075 2.28122 58.7782 2.95609C59.0215 3.39894 58.3442 3.79531 58.1008 3.35213Z" fill="#3F3D56"/>
</g>
<path id="Vector_16" d="M20.7628 149.372C20.0081 149.42 19.591 148.482 20.162 147.935L20.2188 147.709C20.2113 147.691 20.2038 147.673 20.1962 147.655C19.433 145.835 16.8464 145.847 16.0897 147.67C15.4181 149.288 14.563 150.909 14.3524 152.62C14.258 153.375 14.3005 154.145 14.468 154.886C12.8943 151.447 12.0661 147.692 12.0661 143.916C12.0661 142.967 12.118 142.019 12.2242 141.072C12.3115 140.298 12.4318 139.529 12.5876 138.767C13.4299 134.646 15.2537 130.721 17.8845 127.443C19.1492 126.752 20.2038 125.671 20.8409 124.375C21.0697 123.908 21.249 123.405 21.334 122.893C21.1901 122.912 20.7913 120.72 20.8999 120.585C20.6993 120.281 20.3403 120.129 20.1212 119.832C19.0318 118.355 17.5308 118.613 16.7472 120.621C15.0733 121.466 15.0571 122.867 16.0842 124.215C16.7377 125.072 16.8275 126.233 17.4008 127.151C17.3418 127.226 17.2805 127.299 17.2215 127.375C16.1398 128.763 15.2042 130.254 14.4156 131.821C14.6385 130.08 14.3094 127.982 13.7484 126.629C13.1098 125.088 11.9128 123.79 10.8587 122.458C9.59254 120.858 6.9962 121.556 6.77313 123.585C6.77097 123.604 6.76887 123.624 6.76681 123.644C6.92338 123.732 7.07676 123.826 7.22659 123.925C8.08121 124.49 7.78586 125.816 6.77323 125.972L6.7503 125.975C6.80693 126.539 6.90366 127.099 7.04522 127.649C5.69295 132.88 8.61241 134.785 12.781 134.87C12.873 134.917 12.9627 134.965 13.0547 135.01C12.6324 136.199 12.295 137.419 12.0449 138.656C11.8207 139.748 11.665 140.853 11.5777 141.962C11.4692 143.362 11.4786 144.768 11.5966 146.165L11.5895 146.116C11.2899 144.577 10.4546 143.14 9.24185 142.144C7.43521 140.659 4.88276 140.113 2.93371 138.92C1.9955 138.345 0.793244 139.087 0.956987 140.175L0.964958 140.228C1.25516 140.346 1.53829 140.482 1.81199 140.636C1.96856 140.724 2.12194 140.818 2.27177 140.917C3.12639 141.483 2.83104 142.808 1.81841 142.964L1.79546 142.968C1.77895 142.97 1.76478 142.972 1.74829 142.975C2.24614 144.157 2.93979 145.254 3.80807 146.201C4.65361 150.767 8.28522 151.2 12.1699 149.871H12.1723C12.597 151.721 13.2175 153.529 14.015 155.251H20.5978C20.6214 155.178 20.6427 155.103 20.6639 155.03C20.0552 155.067 19.4417 155.032 18.8424 154.921C19.3308 154.322 19.8192 153.717 20.3076 153.118C20.3194 153.106 20.3289 153.094 20.3383 153.083C20.586 152.776 20.8361 152.471 21.0839 152.164L21.084 152.164C21.0995 151.222 20.9864 150.283 20.7628 149.372Z" fill="#F2F2F2"/>
<path id="Vector_17" d="M94.39 155.271C94.39 155.512 94.1964 155.706 93.9553 155.706H1.42787C1.18679 155.706 0.993164 155.512 0.993164 155.271C0.993164 155.03 1.18679 154.836 1.42787 154.836H93.9553C94.1964 154.836 94.39 155.03 94.39 155.271Z" fill="#CCCCCC"/>
<path id="Vector_18" d="M186.854 14.7387C186.854 14.3356 186.526 14.0079 186.123 14.0079H174.799C174.396 14.0079 174.068 14.3356 174.068 14.7387C174.068 15.1417 174.396 15.4694 174.799 15.4694H186.123C186.526 15.4694 186.854 15.1417 186.854 14.7387Z" fill="#F2F2F2"/>
<path id="Vector_19" d="M205.485 14.8146C205.485 14.4116 205.157 14.0839 204.754 14.0839H193.43C193.027 14.0839 192.699 14.4116 192.699 14.8146C192.699 15.2177 193.027 15.5454 193.43 15.5454H204.754C205.157 15.5454 205.485 15.2177 205.485 14.8146Z" fill="#F2F2F2"/>
<path id="Vector_20" d="M224.115 14.8907C224.115 14.4877 223.787 14.1599 223.384 14.1599H212.06C211.657 14.1599 211.329 14.4877 211.329 14.8907C211.329 15.2937 211.657 15.6215 212.06 15.6215H223.384C223.787 15.6215 224.115 15.2937 224.115 14.8907Z" fill="#F2F2F2"/>
<path id="Vector_21" d="M205.485 31.2573C205.485 30.8542 205.157 30.5265 204.754 30.5265H193.43C193.027 30.5265 192.699 30.8542 192.699 31.2573C192.699 31.6603 193.027 31.9881 193.43 31.9881H204.754C205.157 31.9881 205.485 31.6603 205.485 31.2573Z" fill="#F2F2F2"/>
<path id="Vector_22" d="M168.224 31.2573C168.224 30.8542 167.896 30.5265 167.493 30.5265H156.169C155.766 30.5265 155.438 30.8542 155.438 31.2573C155.438 31.6603 155.766 31.9881 156.169 31.9881H167.493C167.896 31.9881 168.224 31.6603 168.224 31.2573Z" fill="#F2F2F2"/>
<path id="Vector_23" d="M186.854 31.3333C186.854 30.9302 186.526 30.6025 186.123 30.6025H174.799C174.396 30.6025 174.068 30.9302 174.068 31.3333C174.068 31.7363 174.396 32.064 174.799 32.064H186.123C186.526 32.064 186.854 31.7363 186.854 31.3333Z" fill="#F2F2F2"/>
<path id="Vector_24" d="M205.485 48.0653C205.485 47.6622 205.157 47.3345 204.754 47.3345H193.43C193.027 47.3345 192.699 47.6622 192.699 48.0653C192.699 48.4683 193.027 48.796 193.43 48.796H204.754C205.157 48.796 205.485 48.4683 205.485 48.0653Z" fill="#F2F2F2"/>
<path id="Vector_25" d="M224.115 48.1412C224.115 47.7382 223.787 47.4105 223.384 47.4105H212.06C211.657 47.4105 211.329 47.7382 211.329 48.1412C211.329 48.5443 211.657 48.872 212.06 48.872H223.384C223.787 48.872 224.115 48.5443 224.115 48.1412Z" fill="#F2F2F2"/>
<path id="Vector_26" d="M149.593 47.9892C149.593 47.5862 149.266 47.2584 148.863 47.2584H137.538C137.135 47.2584 136.808 47.5862 136.808 47.9892C136.808 48.3922 137.135 48.72 137.538 48.72H148.863C149.266 48.72 149.593 48.3922 149.593 47.9892Z" fill="#F2F2F2"/>
<path id="Vector_27" d="M168.224 48.0653C168.224 47.6622 167.896 47.3345 167.493 47.3345H156.169C155.766 47.3345 155.438 47.6622 155.438 48.0653C155.438 48.4683 155.766 48.796 156.169 48.796H167.493C167.896 48.796 168.224 48.4683 168.224 48.0653Z" fill="#F2F2F2"/>
<path id="Vector_28" d="M186.854 48.1412C186.854 47.7382 186.526 47.4105 186.123 47.4105H174.799C174.396 47.4105 174.068 47.7382 174.068 48.1412C174.068 48.5443 174.396 48.872 174.799 48.872H186.123C186.526 48.872 186.854 48.5443 186.854 48.1412Z" fill="#F2F2F2"/>
<g id="Group_6">
<path id="Vector_29" d="M180.554 11.2204C183.069 11.2204 185.107 9.22444 185.107 6.76234C185.107 4.30025 183.069 2.30432 180.554 2.30432C178.04 2.30432 176.001 4.30025 176.001 6.76234C176.001 9.22444 178.04 11.2204 180.554 11.2204Z" fill="#F2F2F2"/>
<path id="Vector_30" d="M180.219 8.60305L180.209 8.60287C180.087 8.59948 179.976 8.53632 179.911 8.43409L178.367 6.01338C178.259 5.84317 178.309 5.6173 178.479 5.50882C178.649 5.40088 178.875 5.4503 178.983 5.62051L180.237 7.58645L182.592 4.30953C182.71 4.14557 182.939 4.10864 183.102 4.22603C183.266 4.34378 183.303 4.57215 183.186 4.73594L180.515 8.45086C180.447 8.54649 180.336 8.60305 180.219 8.60305Z" fill="white"/>
</g>
<g id="Group_7">
<path id="Vector_31" d="M199.915 11.2204C202.429 11.2204 204.468 9.22444 204.468 6.76234C204.468 4.30025 202.429 2.30432 199.915 2.30432C197.4 2.30432 195.362 4.30025 195.362 6.76234C195.362 9.22444 197.4 11.2204 199.915 11.2204Z" fill="#F2F2F2"/>
<path id="Vector_32" d="M199.58 8.60305L199.569 8.60287C199.448 8.59948 199.337 8.53632 199.272 8.43409L197.728 6.01338C197.62 5.84317 197.669 5.6173 197.84 5.50882C198.01 5.40088 198.236 5.4503 198.344 5.62051L199.598 7.58645L201.953 4.30953C202.071 4.14557 202.3 4.10864 202.463 4.22603C202.627 4.34378 202.664 4.57215 202.546 4.73594L199.876 8.45086C199.808 8.54649 199.697 8.60305 199.58 8.60305Z" fill="white"/>
</g>
<g id="Group_8">
<path id="Vector_33" d="M217.815 10.8549C220.329 10.8549 222.368 8.85902 222.368 6.39692C222.368 3.93483 220.329 1.9389 217.815 1.9389C215.3 1.9389 213.262 3.93483 213.262 6.39692C213.262 8.85902 215.3 10.8549 217.815 10.8549Z" fill="#F2F2F2"/>
<path id="Vector_34" d="M217.48 8.23763L217.469 8.23745C217.348 8.23406 217.237 8.1709 217.171 8.06868L215.628 5.64796C215.519 5.47775 215.569 5.25188 215.74 5.14341C215.91 5.03547 216.135 5.08489 216.244 5.25509L217.498 7.22103L219.853 3.94411C219.971 3.78015 220.2 3.74322 220.363 3.86061C220.527 3.97837 220.564 4.20674 220.446 4.37052L217.776 8.08544C217.708 8.18107 217.597 8.23763 217.48 8.23763Z" fill="white"/>
</g>
<path id="Vector_35" d="M224.115 30.2371C224.115 29.8341 223.787 29.5063 223.384 29.5063H212.06C211.657 29.5063 211.329 29.8341 211.329 30.2371C211.329 30.6402 211.657 30.9679 212.06 30.9679H223.384C223.787 30.9679 224.115 30.6402 224.115 30.2371Z" fill="#F2F2F2"/>
<g id="Group_9">
<path id="Vector_36" d="M217.815 26.2014C220.329 26.2014 222.368 24.2055 222.368 21.7434C222.368 19.2813 220.329 17.2853 217.815 17.2853C215.3 17.2853 213.262 19.2813 213.262 21.7434C213.262 24.2055 215.3 26.2014 217.815 26.2014Z" fill="#F2F2F2"/>
<path id="Vector_37" d="M217.48 23.5841L217.469 23.5839C217.348 23.5805 217.237 23.5173 217.171 23.4151L215.628 20.9944C215.519 20.8242 215.569 20.5983 215.74 20.4898C215.91 20.3819 216.135 20.4313 216.244 20.6015L217.498 22.5675L219.853 19.2905C219.971 19.1266 220.2 19.0897 220.363 19.207C220.527 19.3248 220.564 19.5532 220.446 19.717L217.776 23.4319C217.708 23.5275 217.597 23.5841 217.48 23.5841Z" fill="white"/>
</g>
<g id="Group_10">
<path id="Vector_38" d="M199.184 28.7591C201.699 28.7591 203.737 26.7632 203.737 24.3011C203.737 21.839 201.699 19.8431 199.184 19.8431C196.67 19.8431 194.632 21.839 194.632 24.3011C194.632 26.7632 196.67 28.7591 199.184 28.7591Z" fill="#F2F2F2"/>
<path id="Vector_39" d="M198.849 26.1418L198.839 26.1416C198.718 26.1382 198.606 26.0751 198.541 25.9728L196.998 23.5521C196.889 23.3819 196.939 23.1561 197.109 23.0476C197.279 22.9396 197.505 22.9891 197.614 23.1593L198.867 25.1252L201.223 21.8483C201.341 21.6843 201.569 21.6474 201.732 21.7648C201.896 21.8825 201.934 22.1109 201.816 22.2747L199.146 25.9896C199.077 26.0852 198.967 26.1418 198.849 26.1418Z" fill="white"/>
</g>
<g id="Group_11">
<path id="Vector_40" d="M180.919 28.7591C183.434 28.7591 185.472 26.7632 185.472 24.3011C185.472 21.839 183.434 19.8431 180.919 19.8431C178.405 19.8431 176.366 21.839 176.366 24.3011C176.366 26.7632 178.405 28.7591 180.919 28.7591Z" fill="#F2F2F2"/>
<path id="Vector_41" d="M180.584 26.1418L180.574 26.1416C180.453 26.1382 180.341 26.0751 180.276 25.9728L178.732 23.5521C178.624 23.3819 178.674 23.1561 178.844 23.0476C179.014 22.9396 179.24 22.9891 179.349 23.1593L180.602 25.1252L182.957 21.8483C183.076 21.6843 183.304 21.6474 183.467 21.7648C183.631 21.8825 183.669 22.1109 183.551 22.2747L180.881 25.9896C180.812 26.0852 180.701 26.1418 180.584 26.1418Z" fill="white"/>
</g>
<g id="Group_12">
<path id="Vector_42" d="M161.923 28.7591C164.438 28.7591 166.476 26.7632 166.476 24.3011C166.476 21.839 164.438 19.8431 161.923 19.8431C159.409 19.8431 157.371 21.839 157.371 24.3011C157.371 26.7632 159.409 28.7591 161.923 28.7591Z" fill="#F2F2F2"/>
<path id="Vector_43" d="M161.588 26.1418L161.578 26.1416C161.457 26.1382 161.345 26.0751 161.28 25.9728L159.737 23.5521C159.628 23.3819 159.678 23.1561 159.848 23.0476C160.018 22.9396 160.244 22.9891 160.353 23.1593L161.606 25.1252L163.962 21.8483C164.08 21.6843 164.308 21.6474 164.471 21.7648C164.635 21.8825 164.673 22.1109 164.555 22.2747L161.885 25.9896C161.816 26.0852 161.706 26.1418 161.588 26.1418Z" fill="white"/>
</g>
<path id="Vector_44" d="M159.688 31.1572C159.688 30.302 158.993 29.6065 158.138 29.6065H134.108C133.253 29.6065 132.558 30.302 132.558 31.1572C132.558 32.0124 133.253 32.7078 134.108 32.7078H158.138C158.993 32.7078 159.688 32.0124 159.688 31.1572Z" fill="#3F3D56"/>
<g id="Group_13">
<path id="Vector_45" d="M146.319 25.695C151.655 25.695 155.98 21.4599 155.98 16.2355C155.98 11.0112 151.655 6.77606 146.319 6.77606C140.984 6.77606 136.659 11.0112 136.659 16.2355C136.659 21.4599 140.984 25.695 146.319 25.695Z" fill="#60E772"/>
<path id="Vector_46" d="M145.607 20.1413C145.6 20.1413 145.593 20.1413 145.586 20.1409C145.329 20.1337 145.092 19.9997 144.954 19.7828L141.679 14.6462C141.449 14.2851 141.555 13.8058 141.916 13.5756C142.277 13.3466 142.756 13.4515 142.986 13.8126L145.646 17.9841L150.643 11.0308C150.893 10.6829 151.378 10.6046 151.724 10.8537C152.072 11.1035 152.151 11.5881 151.901 11.9356L146.237 19.8183C146.091 20.0213 145.856 20.1413 145.607 20.1413Z" fill="white"/>
</g>
<path id="Vector_47" d="M46.6972 5.87168C47.1721 6.10554 47.6178 6.39785 48.0196 6.734C48.1365 6.83267 47.0296 6.96422 47.1392 7.06652C46.3538 8.33078 49.6269 9.91291 48.2351 9.98965C47.9575 9.39771 43.6725 8.01287 43.2086 7.55613C43.2743 8.08229 45.0095 8.73636 44.9474 9.25886C43.3875 9.1602 39.9099 8.57558 38.0066 7.7973C39.1533 10.0829 39.1619 11.8793 36.5454 12.5474C34.5872 12.5474 33.22 14.4879 33.8786 16.3325L34.3536 17.6629L32.5271 15.8359C31.7675 15.0761 30.2963 13.2786 29.8121 11.3595C29.4643 9.98121 29.7476 8.53705 30.4714 7.31375C30.4982 7.26855 30.5224 7.22494 30.5435 7.18344C30.1307 7.37343 29.6997 7.5196 29.2576 7.61826C29.2394 6.82169 32.3298 5.34554 32.5271 4.87417C33.444 2.67817 32.107 2.68182 35.8148 2.68182C36.1345 2.46868 36.7766 2.8328 37.6413 2.68182C39.2328 2.40398 39.8906 1.31771 41.8665 1.73305C43.5716 2.09149 45.2308 2.61723 46.5176 3.15356L47.1392 3.41261C47.5155 4.01549 47.6689 4.5782 47.647 5.08974C47.6141 5.08245 47.5776 5.07513 47.5447 5.07147C46.8981 4.98013 47.3328 5.73284 46.6972 5.87168Z" fill="#2F2E41"/>
</g>
<defs>
<clipPath id="clip0_16_752">
<rect width="223.173" height="155.507" fill="white" transform="translate(0.941895 0.199036)"/>
</clipPath>
</defs>
</svg>
