<svg width="210" height="169" viewBox="0 0 210 169" fill="none" xmlns="http://www.w3.org/2000/svg">
<g id="undraw_personal_trainer_re_cnua 1" clip-path="url(#clip0_16_696)">
<path id="Vector" d="M47.7044 85.6907C45.054 85.5124 43.8195 86.0286 43.0224 86.5543C42.7665 86.7231 42.514 86.9207 42.2754 87.1343C43.4801 84.689 44.714 82.2547 45.9715 79.8374C45.9796 80.1619 46.0373 80.3158 46.1798 80.3928C46.5059 80.5689 47.2665 80.0052 48.7746 78.8707C49.921 78.0082 50.0674 77.7896 50.1526 77.6398C50.4523 77.1131 50.4268 76.6791 50.2421 74.7869C49.9105 71.3908 49.8251 71.072 49.9859 70.27C50.0412 69.9939 50.1923 69.3285 50.085 69.2903C49.9748 69.2511 49.8035 69.9492 49.1937 70.4046C48.5994 70.8485 48.1811 70.6193 47.641 70.905C46.9429 71.2744 46.7507 72.1289 46.4617 73.5041C46.2057 74.7219 46.271 75.1527 46.1185 77.4473C46.0752 78.0973 46.0342 78.6031 46.0062 79.0013C44.8804 81.1549 43.7756 83.3243 42.6907 85.502C42.7054 85.4423 42.7192 85.3859 42.7312 85.337C43.0669 83.9602 42.955 83.3248 42.7863 82.8784C42.513 82.1553 41.9698 81.7224 40.8945 80.886C39.8409 80.0664 38.9496 79.5945 37.8785 79.034C36.4746 78.2993 35.7726 77.932 35.5822 78.0393C35.104 78.3089 35.1751 79.7219 35.5746 81.4898C34.6654 81.0205 34.1825 80.8006 34.0298 80.8867C33.964 80.9238 33.9089 80.9832 33.8634 81.0615C33.1837 81.0279 32.2827 81.0666 31.2518 81.2018C32.0652 80.9076 32.9793 80.5195 33.9639 79.9902C34.8175 79.5313 35.2434 79.2979 35.2025 79.1051C35.0563 78.4149 29.2282 78.4289 24.2322 81.0523C21.8801 82.2874 21.0979 83.3734 20.6934 84.2386C20.5635 84.5164 20.4516 84.8171 20.3599 85.1242C20.108 82.4095 19.8868 79.6888 19.6945 76.9704C19.8712 77.2428 20.0008 77.3439 20.1626 77.335C20.5325 77.3144 20.8861 76.4359 21.5781 74.6797C22.1041 73.3448 22.1146 73.0818 22.1089 72.9096C22.0889 72.3039 21.8402 71.9473 20.6934 70.4313C18.635 67.7104 18.3955 67.4834 18.1132 66.7158C18.016 66.4515 17.7968 65.8053 17.6854 65.8289C17.571 65.8532 17.79 66.5378 17.5085 67.2451C17.234 67.9344 16.7577 67.958 16.4468 68.4842C16.0449 69.1644 16.3279 69.9931 16.8007 71.3164C17.2194 72.4883 17.5003 72.8213 18.5701 74.8567C18.8732 75.4333 19.1026 75.8859 19.287 76.2399C19.4536 78.6644 19.6463 81.0914 19.8605 83.5152C19.8418 83.4566 19.8241 83.4014 19.8087 83.3535C19.3749 82.0044 18.9473 81.5214 18.5701 81.2293C17.9591 80.7561 17.2697 80.6714 15.916 80.5212C14.5894 80.3741 13.5831 80.4384 12.3772 80.5212C10.7965 80.6298 10.0061 80.6841 9.90001 80.8753C9.60869 81.3998 10.5932 82.7454 12.0643 84.1849C10.8634 84.27 10.2512 84.3327 10.1588 84.4992C9.91702 84.9345 10.5554 85.9359 11.619 87.0862C10.8797 87.1498 10.4897 87.2165 10.4175 87.3466C9.60592 88.8079 18.6743 96.6371 20.6801 95.1353C20.8324 95.0212 20.9403 94.8537 21.0146 94.6496C21.0474 94.9257 21.081 95.202 21.1145 95.4782C18.745 95.2114 14.1932 95.9259 11.4925 98.7538C10.1499 100.16 9.94758 101.373 9.90001 101.763C9.68901 103.492 10.5301 105.332 11.2279 105.468C11.4339 106.755 12.0795 107.819 12.6093 107.81C13.2735 107.799 13.156 106.11 14.7325 104.27C15.8326 102.986 17.1408 102.347 17.9175 101.969C19.5856 101.155 20.5549 101.179 21.7565 100.516C21.7807 100.694 21.8064 100.873 21.8308 101.051C19.6296 101.421 17.116 102.365 15.3736 104.19C14.0311 105.596 13.8287 106.809 13.7812 107.199C13.6512 108.264 13.9216 109.37 14.3109 110.097C13.252 111.209 12.9593 112.371 12.3772 114.685C12.0053 116.164 12.0866 116.688 12.3772 116.986C12.6175 117.233 12.9973 117.321 14.5005 117.163C16.1311 116.993 16.9465 116.907 17.6854 116.632C18.8543 116.198 19.6602 115.452 21.2242 113.977C21.8674 113.371 22.4112 112.856 22.8545 112.406C23.0852 112.485 23.3016 112.545 23.5202 112.588C23.5456 112.593 23.5707 112.597 23.596 112.601C23.9993 114.993 24.4255 117.377 24.8739 119.751C23.4151 120.077 22.1686 121.038 21.4836 122.42L16.071 133.345C15.7293 134.034 15.5487 134.805 15.5487 135.575V163.666C15.5487 166.435 17.8009 168.688 20.5694 168.688H33.2032C35.9717 168.688 38.224 166.435 38.224 163.666V137.8C38.224 137.169 38.1072 136.552 37.8769 135.965L32.7184 122.816C31.9725 120.915 30.1901 119.677 28.1577 119.632C29.2115 116.851 30.2987 114.073 31.4239 111.307C31.5973 111.239 31.7508 111.169 31.8841 111.095C32.0917 111.323 32.517 111.589 33.419 112.02C34.8981 112.728 35.6377 113.082 36.411 113.234C37.6344 113.476 38.7114 113.262 40.8154 112.823C43.6783 112.227 45.1159 111.912 45.4154 111.079C45.8298 109.925 44.5298 108.44 44.1715 108.03C43.3928 107.14 42.5332 106.734 42.0021 106.49C41.3124 106.173 39.3467 105.27 36.9706 105.893C35.4749 106.285 34.6184 107.122 32.9052 108.797C32.7403 108.958 32.5978 109.105 32.4714 109.241C32.4429 109.159 32.4107 109.078 32.3755 108.998C32.6157 108.418 32.856 107.839 33.0992 107.261C34.856 105.593 35.7205 104.675 35.5564 103.887C35.4794 103.517 35.2464 103.206 34.9465 102.948C35.2798 102.182 35.6138 101.417 35.9518 100.655C36.1072 100.651 36.2675 100.644 36.4402 100.627C37.3454 100.542 38.3703 100.445 38.4796 100.01C38.5374 99.7804 38.3383 99.444 37.947 99.0652C38.5125 98.9073 39.3739 97.7558 41.3074 97.1325C42.9164 96.6138 44.365 96.7545 45.2251 96.838C47.4445 97.0536 48.1686 97.7743 50.164 97.5861C51.0693 97.5007 52.0942 97.4041 52.2035 96.9691C52.2526 96.7738 52.1153 96.5016 51.8346 96.1924C52.3374 96.2618 52.8754 96.3169 53.4489 96.3498C54.4162 96.4054 54.9013 96.4295 54.9673 96.2437C55.2036 95.579 50.2292 92.5408 44.5995 92.1621C43.2327 92.0701 42.2444 92.1636 41.4965 92.3471C43.296 91.6751 45.9741 90.6534 48.9142 91.4805C49.9264 91.7652 51.9748 92.552 55.0014 92.7259C55.9687 92.7815 56.4538 92.8055 56.5197 92.6198C56.7559 91.9553 51.7858 88.9196 46.1591 88.5387C47.4651 88.2746 48.9299 88.2008 50.4667 88.6331C51.4789 88.9179 53.5273 89.7046 56.5538 89.8785C57.5212 89.9341 58.0062 89.9582 58.0722 89.7724C58.3085 89.1077 53.3341 86.0695 47.7044 85.6907ZM21.6976 97.3302C21.7738 97.2702 21.8486 97.2102 21.9206 97.1502C22.0497 97.34 22.1861 97.486 22.3226 97.5783C22.3371 97.6544 22.3527 97.7295 22.3701 97.8036C22.1779 97.783 21.972 97.769 21.7539 97.7618C21.7356 97.618 21.7158 97.474 21.6976 97.3302ZM32.8163 87.3695C32.8383 87.4956 32.8621 87.624 32.8883 87.7555C32.6478 87.7094 32.3723 87.6766 32.0711 87.6571C32.3113 87.5696 32.5594 87.4747 32.8163 87.3695ZM33.3892 89.7509C33.2045 89.7323 33.007 89.72 32.7993 89.7136C32.9617 89.5899 33.1223 89.4643 33.271 89.3394C33.309 89.4757 33.3483 89.6128 33.3892 89.7509ZM29.1297 93.8527C31.0349 92.9574 32.0215 93.1482 33.5834 91.9739C33.7288 91.8646 33.8778 91.7523 34.0224 91.6393C34.5407 93.0219 35.161 94.3408 35.8 95.2967C34.0106 94.3928 31.5521 93.6583 29.1297 93.8527ZM33.716 82.4488C33.7735 83.2033 33.9585 84.1622 34.2339 85.1927C34.2182 85.1926 34.2027 85.1925 34.1868 85.1924C33.5031 84.8483 33.1264 84.6953 32.9948 84.7695C32.8577 84.8468 32.7658 85.0182 32.7138 85.2649C30.5651 85.4697 27.6689 86.1265 25.0084 87.5236C22.6563 88.7587 21.8741 89.8447 21.4696 90.7099C21.2972 91.0787 21.1563 91.4876 21.0528 91.8983C20.9998 91.4219 20.9452 90.9463 20.8939 90.469C22.0502 90.0189 23.7984 85.6718 28.1249 84.444C29.1047 84.166 31.1611 83.7776 33.716 82.4488ZM21.1293 97.7595C21.1612 97.7363 21.1918 97.7161 21.2242 97.6917C21.2736 97.6546 21.3234 97.6172 21.3733 97.5795C21.3808 97.6384 21.3889 97.6974 21.3964 97.7563C21.3086 97.7564 21.22 97.7572 21.1293 97.7595ZM22.0876 100.318C22.2271 100.229 22.3692 100.133 22.5179 100.021C22.7417 99.8532 22.9745 99.6781 23.1857 99.5038C23.3493 99.6687 23.5171 99.7653 23.6747 99.7626C23.7364 99.7615 23.7897 99.7415 23.8399 99.7127C23.7043 100.119 23.6245 100.516 23.599 100.87C23.1539 100.885 22.6779 100.925 22.1804 100.996C22.1495 100.77 22.1181 100.544 22.0876 100.318ZM27.7809 119.628H25.982C25.7243 119.628 25.4707 119.649 25.2217 119.686C24.7808 117.352 24.3616 115.008 23.9642 112.657C25.0221 112.774 26.0777 112.562 27.9246 112.177C29.2333 111.905 30.2409 111.691 30.9813 111.459C29.8797 114.174 28.8137 116.899 27.7809 119.628ZM31.9927 108.304C32.1406 108.166 32.2973 108.018 32.4605 107.864C32.3607 108.103 32.2636 108.343 32.1644 108.582C32.109 108.486 32.0515 108.393 31.9927 108.304ZM32.9023 101.94C31.7732 101.589 30.8284 101.693 30.2482 101.763C29.5207 101.851 27.4949 102.099 25.8264 103.713C25.2695 103.698 24.6389 103.729 23.967 103.814C24.3247 103.65 24.695 103.436 25.1054 103.128C25.8322 102.581 26.6551 101.962 26.5209 101.535C26.4589 101.337 26.1865 101.173 25.7654 101.056C26.2397 100.741 26.8289 100.417 27.5835 100.174C29.1926 99.6551 30.6412 99.7958 31.5012 99.8793C33.363 100.06 34.175 100.595 35.5655 100.652C35.2598 101.342 34.9582 102.035 34.6564 102.727C34.0108 102.287 33.213 102.037 32.9023 101.94ZM36.9963 98.3188C37.0086 98.2917 37.0206 98.2644 37.0328 98.2373C37.1291 98.2261 37.2241 98.2141 37.3168 98.2007C37.3234 98.3404 37.3414 98.4667 37.3693 98.5792C37.2533 98.493 37.1274 98.406 36.9963 98.3188ZM39.9174 93.0256C39.9088 93.0313 39.9003 93.0378 39.8917 93.0436C39.9123 92.9697 39.9315 92.8986 39.9502 92.8291C40.1088 92.8072 40.29 92.7625 40.4921 92.7007C40.2755 92.8044 40.0858 92.9146 39.9174 93.0256Z" fill="#CECECE"/>
<g id="Group">
<path id="Vector_2" d="M63.2208 166.32L67.1671 166.319L69.0444 151.091L63.22 151.091L63.2208 166.32Z" fill="#FFB6B6"/>
<path id="Vector_3" d="M76.7415 166.23C76.8644 166.437 76.9293 167.105 76.9293 167.346C76.9293 168.086 76.3296 168.686 75.5898 168.686H63.3684C62.8638 168.686 62.4547 168.277 62.4547 167.772V167.263C62.4547 167.263 61.8501 165.733 63.0948 163.847C63.0948 163.847 64.6418 165.324 66.9535 163.011L67.6352 161.776L72.5697 165.386L75.3048 165.723C75.9032 165.796 76.4337 165.711 76.7415 166.23Z" fill="#2F2E41"/>
</g>
<g id="Group_2">
<path id="Vector_4" d="M84.9551 166.32L88.9015 166.319L90.7788 151.091L84.9543 151.091L84.9551 166.32Z" fill="#FFB6B6"/>
<path id="Vector_5" d="M98.4759 166.23C98.5988 166.437 98.6636 167.105 98.6636 167.346C98.6636 168.086 98.064 168.686 97.3242 168.686H85.1028C84.5982 168.686 84.189 168.277 84.189 167.772V167.263C84.189 167.263 83.5845 165.733 84.8292 163.847C84.8292 163.847 86.3762 165.324 88.6879 163.011L89.3696 161.776L94.304 165.386L97.0392 165.723C97.6375 165.796 98.1681 165.711 98.4759 166.23Z" fill="#2F2E41"/>
</g>
<path id="Vector_6" d="M83.3699 45.0963C83.3699 45.0963 87.9152 43.0254 90.8174 45.0963C93.7196 47.1671 96.307 65.8044 93.2021 68.9107C90.0972 72.0169 84.9223 65.0279 84.9223 65.0279L83.3699 45.0963Z" fill="#FFB6B6"/>
<path id="Vector_7" d="M66.1917 45.3428C66.1917 45.3428 61.6463 43.272 58.7442 45.3428C55.842 47.4137 53.2545 66.051 56.3594 69.1573C59.4644 72.2635 64.6392 65.2745 64.6392 65.2745L66.1917 45.3428Z" fill="#FFB6B6"/>
<path id="Vector_8" d="M66.3209 68.2513C66.3209 68.2513 64.7685 75.2403 62.9573 78.3465L76.1531 86.1121L86.5028 79.3819C86.5028 79.3819 81.5867 71.3575 82.363 69.0278L66.3209 68.2513Z" fill="#FFB6B6"/>
<g id="Group_3">
<path id="Vector_9" d="M156.227 165.543L151.159 165.543L148.748 145.987L156.228 145.987L156.227 165.543Z" fill="#FFB6B6"/>
<path id="Vector_10" d="M138.864 165.428C138.706 165.694 138.623 166.552 138.623 166.862C138.623 167.812 139.393 168.582 140.343 168.582H156.037C156.686 168.582 157.211 168.057 157.211 167.408V166.755C157.211 166.755 157.987 164.79 156.389 162.368C156.389 162.368 154.402 164.265 151.433 161.295L150.558 159.708L144.221 164.345L140.709 164.777C139.94 164.872 139.259 164.762 138.864 165.428Z" fill="#2F2E41"/>
</g>
<g id="Group_4">
<path id="Vector_11" d="M171.893 165.543L166.825 165.543L164.414 145.987L171.894 145.987L171.893 165.543Z" fill="#FFB6B6"/>
<path id="Vector_12" d="M154.529 165.428C154.371 165.694 154.288 166.552 154.288 166.862C154.288 167.812 155.058 168.582 156.008 168.582H171.703C172.351 168.582 172.876 168.057 172.876 167.408V166.755C172.876 166.755 173.653 164.79 172.054 162.368C172.054 162.368 170.068 164.265 167.099 161.295L166.224 159.708L159.887 164.345L156.374 164.777C155.606 164.872 154.924 164.762 154.529 165.428Z" fill="#2F2E41"/>
</g>
<g id="Group_5">
<path id="Vector_13" d="M145.684 52.7289C145.684 52.7289 144.95 57.4555 145.8 60.5054L133.317 82.6494L138.173 86.1899L154.388 65.7793L156.636 55.6947L145.684 52.7289Z" fill="#FFB6B6"/>
<path id="Vector_14" d="M137.428 89.4109C139.148 86.3592 139.015 83.0238 137.131 81.9609C135.247 80.898 132.325 82.5101 130.605 85.5618C128.885 88.6134 129.018 91.9489 130.902 93.0118C132.786 94.0747 135.708 92.4625 137.428 89.4109Z" fill="#FFB6B6"/>
</g>
<path id="Vector_15" d="M150.553 75.2585C150.553 75.2585 144.585 79.4718 146.637 85.761L144.958 106.976L148.688 150.634H156.722L158.013 119.29L163.235 99.513L163.912 150.634L173.865 150.448C173.865 150.448 174.424 124.887 173.678 123.394C172.932 121.902 173.678 123.099 173.678 123.099L179.833 93.1651L178.9 72.6465L150.553 75.2585Z" fill="#2F2E41"/>
<path id="Vector_16" d="M165.286 23.2046L154.469 27.3092L155.588 30.2944L146.637 37.011L152.605 57.9072L149.248 76.5645L158.945 76.1914L179.833 74.3256L177.595 51.5637L177.968 29.5481L169.762 26.5629L165.286 23.2046Z" fill="#60E772"/>
<path id="Vector_17" d="M149.434 36.4512L146.637 37.011C146.637 37.011 145.331 37.9438 145.331 41.3021C145.331 44.6605 145.331 46.8993 145.704 48.7651C145.704 48.7651 143.466 54.7354 144.212 56.228C144.958 57.7206 154.283 57.7206 154.283 57.7206L149.434 36.4512Z" fill="#60E772"/>
<path id="Vector_18" d="M164.848 14.5458C164.848 19.2436 161.042 23.0518 156.346 23.0518C151.65 23.0518 147.844 19.2436 147.844 14.5458C147.844 9.84811 151.65 6.03986 156.346 6.03986C161.042 6.03986 164.848 9.84811 164.848 14.5458Z" fill="#FFB6B6"/>
<path id="Vector_19" d="M161.66 20.4688C161.66 20.4688 163.166 14.6796 161.561 15.7004L159.07 15.4636L160.643 11.2548C160.643 11.2548 157.827 9.1432 156.705 10.3775C155.582 11.6118 155.851 12.3079 154.831 10.7022C153.81 9.09657 151.678 9.12692 149.725 10.2823C147.772 11.4377 146.246 11.6278 146.617 9.48397C146.989 7.34009 146.781 3.69717 147.94 4.11031C149.099 4.52344 148.781 4.75663 149.407 3.25952C150.032 1.76242 150.111 0.931776 151.558 1.57224C153.005 2.2127 156.642 -0.794124 158.145 1.02502C159.647 2.84416 160.96 3.13658 162.273 3.429C163.585 3.72142 168.859 2.88179 168.418 11.0536C168.418 11.0536 171.939 18.0934 165.598 21.346C165.598 21.346 163.877 19.647 162.675 21.712L161.66 20.4688Z" fill="#2F2E41"/>
<path id="Vector_20" d="M80.0343 38.7421L71.7545 39.001L67.3559 44.4369L62.4398 45.4723C62.4398 45.4723 60.8873 59.968 63.216 65.1451C65.5447 70.3221 64.5097 71.8752 64.5097 71.8752L83.1392 71.6164C83.1392 71.6164 82.6217 68.1005 85.7266 65.0696L87.2837 59.3048C88.1162 56.2226 87.8326 52.9453 86.483 50.0521L83.1392 42.8838L80.293 41.8484L80.0343 38.7421Z" fill="#2F2E41"/>
<path id="Vector_21" d="M64.5098 74.9814L63.3455 76.9228C63.3455 76.9228 59.7231 81.841 59.2056 95.8191C58.6881 109.797 62.9574 155.028 62.9574 155.028H68.8657L75.2529 93.8328L83.7862 155.096L91.4191 155.226L90.7722 92.7128C90.7722 92.7128 89.2198 78.476 85.0799 75.3697C85.0799 75.3697 71.7546 87.4064 64.5098 74.9814Z" fill="#2F2E41"/>
<g id="Group_6">
<path id="Vector_22" d="M53.734 44.3162C53.734 47.0036 53.5721 49.0031 50.6388 49.1821C47.8838 49.3501 47.5437 47.0036 47.5437 44.3162C47.5437 41.6289 47.6079 39.4722 50.6388 39.4504C54.0896 39.4256 53.734 41.6289 53.734 44.3162Z" fill="#60E772"/>
<path id="Vector_23" d="M70.9783 44.316C70.9783 47.0033 71.6842 49.0029 67.8832 49.1818C64.9591 49.3194 64.7881 47.0033 64.7881 44.316C64.7881 41.6286 65.2176 39.7517 67.8832 39.4501C70.3905 39.1665 70.9783 41.6286 70.9783 44.316Z" fill="#60E772"/>
<path id="Vector_24" d="M68.3253 42.1042H51.0811V46.0854H68.3253V42.1042Z" fill="#60E772"/>
</g>
<g id="Group_7">
<path id="Vector_25" d="M83.4893 43.5397C83.4893 46.227 83.3275 48.2266 80.3942 48.4055C77.6391 48.5736 77.2991 46.227 77.2991 43.5397C77.2991 40.8524 77.3632 38.6956 80.3942 38.6739C83.845 38.6491 83.4893 40.8524 83.4893 43.5397Z" fill="#60E772"/>
<path id="Vector_26" d="M100.734 43.5394C100.734 46.2267 101.44 48.2263 97.6386 48.4052C94.7144 48.5429 94.5435 46.2267 94.5435 43.5394C94.5435 40.8521 94.973 38.9751 97.6386 38.6736C100.146 38.3899 100.734 40.8521 100.734 43.5394Z" fill="#60E772"/>
<path id="Vector_27" d="M98.0807 41.3277H80.8364V45.3088H98.0807V41.3277Z" fill="#60E772"/>
</g>
<g id="Group_8">
<path id="Vector_28" d="M128.511 85.9915C128.511 88.6788 128.349 90.6784 125.415 90.8573C122.66 91.0254 122.32 88.6788 122.32 85.9915C122.32 83.3041 122.384 81.1474 125.415 81.1256C128.866 81.1009 128.511 83.3041 128.511 85.9915Z" fill="#60E772"/>
<path id="Vector_29" d="M145.755 85.9912C145.755 88.6785 146.461 90.6781 142.66 90.857C139.736 90.9947 139.565 88.6785 139.565 85.9912C139.565 83.3039 139.994 81.4269 142.66 81.1254C145.167 80.8417 145.755 83.3039 145.755 85.9912Z" fill="#60E772"/>
<path id="Vector_30" d="M143.102 83.7794H125.858V87.7606H143.102V83.7794Z" fill="#60E772"/>
</g>
<path id="Vector_31" d="M89.591 49.6537C91.4476 49.6537 92.9527 47.2159 92.9527 44.2086C92.9527 41.2014 91.4476 38.7635 89.591 38.7635C87.7343 38.7635 86.2292 41.2014 86.2292 44.2086C86.2292 47.2159 87.7343 49.6537 89.591 49.6537Z" fill="#FFB6B6"/>
<path id="Vector_32" d="M73.6951 35.6359C78.7681 35.6359 82.8805 31.5217 82.8805 26.4466C82.8805 21.3716 78.7681 17.2574 73.6951 17.2574C68.6222 17.2574 64.5098 21.3716 64.5098 26.4466C64.5098 31.5217 68.6222 35.6359 73.6951 35.6359Z" fill="#FFB6B6"/>
<path id="Vector_33" d="M71.851 29.3341L73.9762 25.9506L74.9333 21.349C74.9333 21.349 84.6148 23.7114 82.0173 18.9867C79.4199 14.262 72.8081 13.0809 68.3216 16.6244L66.3879 18.5142C66.3879 18.5142 70.6829 14.4983 68.0854 13.0809C65.488 11.6635 65.9602 10.7185 64.5434 11.8997C63.1266 13.0809 63.835 14.0258 62.1821 13.3171C60.5292 12.6084 56.9872 11.6635 57.4594 12.8446C57.9317 14.0258 54.3693 17.0968 55.6782 18.5142C56.9872 19.9316 55.8065 22.7664 58.1678 22.0577C60.5292 21.349 59.3485 24.8925 61.4737 23.4751C61.4737 23.4751 59.7294 25.699 61.1462 27.3526C62.563 29.0063 64.7459 29.6496 64.5098 32.012C64.2737 34.3743 69.9434 34.8594 69.9434 34.8594L69.5022 27.9636C69.5022 27.9636 70.9065 26.8118 71.851 29.3341Z" fill="#2F2E41"/>
<g id="Group_9">
<path id="Vector_34" d="M165.367 45.1905C165.367 45.1905 164.013 49.7779 164.451 52.9136L149.143 73.2054L153.486 77.359L172.264 59.2808L175.829 49.5835L165.367 45.1905Z" fill="#FFB6B6"/>
<path id="Vector_35" d="M152.32 80.4526C154.43 77.6563 154.741 74.3326 153.014 73.0291C151.288 71.7255 148.178 72.9357 146.068 75.7321C143.959 78.5284 143.648 81.8521 145.375 83.1556C147.101 84.4592 150.211 83.249 152.32 80.4526Z" fill="#FFB6B6"/>
</g>
<path id="Vector_36" d="M176.461 28.3221C176.461 28.3221 181.23 30.053 180.623 33.3349C180.017 36.6168 179.786 38.7803 179.786 38.7803C179.786 38.7803 180.303 40.573 179.629 41.4665C178.955 42.36 175.494 52.8368 175.494 52.8368L163.047 48.5809C163.047 48.5809 170.344 28.3783 176.461 28.3221Z" fill="#60E772"/>
<path id="Vector_37" d="M209.117 168.791C209.117 168.911 209.02 169.009 208.9 169.009H1.03669C0.916649 169.009 0.819336 168.911 0.819336 168.791C0.819336 168.671 0.916646 168.574 1.03669 168.574H208.9C209.02 168.574 209.117 168.671 209.117 168.791Z" fill="#E6E6E6"/>
<path id="Vector_38" d="M63.3323 44.4552C63.3323 47.4625 61.8272 49.9003 59.9706 49.9003C58.114 49.9003 56.6089 47.4625 56.6089 44.4552C56.6089 41.448 58.114 39.0101 59.9706 39.0101C61.8272 39.0101 63.3323 41.448 63.3323 44.4552Z" fill="#FFB6B6"/>
</g>
<defs>
<clipPath id="clip0_16_696">
<rect width="208.298" height="168.577" fill="white" transform="translate(0.819336 0.432007)"/>
</clipPath>
</defs>
</svg>
