<svg width="109" height="156" viewBox="0 0 109 156" fill="none" xmlns="http://www.w3.org/2000/svg">
<g id="personal-icon">
<path id="Vector" d="M9.20515 59.7891L8.18445 61.4038L21.8134 70.3998L22.8341 68.7851L9.20515 59.7891Z" fill="white"/>
<path id="Vector_2" d="M108 155.5C108 155.777 107.776 156 107.497 156H0.502679C0.223895 156 0 155.777 0 155.5C0 155.223 0.223895 155 0.502679 155H107.497C107.776 155 108 155.223 108 155.5Z" fill="#CCCCCC"/>
<path id="Vector_3" d="M23.5093 70.3745C25.2004 67.6992 26.0408 65.1801 25.3862 64.7481C24.7317 64.3161 22.8302 66.1346 21.139 68.81C19.4479 71.4854 18.6075 74.0044 19.262 74.4364C19.9166 74.8685 21.8181 73.0499 23.5093 70.3745Z" fill="white"/>
<path id="Vector_4" d="M9.87986 61.3787C11.571 58.7033 12.4114 56.1843 11.7568 55.7523C11.1023 55.3202 9.20075 57.1388 7.5096 59.8142C5.81845 62.4895 4.97811 65.0086 5.63264 65.4406C6.28718 65.8726 8.18871 64.054 9.87986 61.3787Z" fill="white"/>
<path id="Vector_5" d="M54.3016 145.668C84.2915 145.668 108.603 143.773 108.603 141.436C108.603 139.098 84.2915 137.203 54.3016 137.203C24.3116 137.203 0 139.098 0 141.436C0 143.773 24.3116 145.668 54.3016 145.668Z" fill="#E6E6E6"/>
<path id="Vector_6" d="M98.9692 121.142C98.7911 127.941 97.6765 134.681 95.6583 141.163C95.6122 141.313 95.5639 141.462 95.5155 141.612H83.1597C83.1728 141.477 83.186 141.327 83.1992 141.163C84.0231 131.485 88.773 72.58 83.0938 62.5066C83.5903 63.3238 99.9271 90.3897 98.9692 121.142Z" fill="#E6E6E6"/>
<path id="Vector_7" d="M98.042 141.163C97.9387 141.313 97.8311 141.464 97.7212 141.612H88.4521C88.5225 141.484 88.6037 141.334 88.6982 141.163C90.2295 138.339 94.7619 129.895 98.9691 121.142C103.491 111.735 107.638 101.972 107.289 98.4381C107.397 99.2351 110.525 123.531 98.042 141.163Z" fill="#E6E6E6"/>
<path id="Vector_8" d="M11.4191 131.222C11.5095 134.673 12.0753 138.094 13.0997 141.384C13.1231 141.46 13.1476 141.536 13.1722 141.612H19.4438C19.4371 141.544 19.4304 141.467 19.4237 141.384C19.0055 136.472 16.5946 106.572 19.4772 101.459C19.2252 101.874 10.9329 115.612 11.4191 131.222Z" fill="#E6E6E6"/>
<path id="Vector_9" d="M11.8898 141.384C11.9422 141.46 11.9969 141.537 12.0526 141.612H16.7575C16.7218 141.547 16.6805 141.471 16.6326 141.384C15.8553 139.951 13.5548 135.665 11.4192 131.222C9.12424 126.447 7.01882 121.491 7.19613 119.698C7.14148 120.102 5.5535 132.434 11.8898 141.384Z" fill="#E6E6E6"/>
<path id="Vector_10" d="M19.4239 56.4904C19.4239 56.4904 8.94617 66.983 13.3468 68.2678C17.7474 69.5526 22.7767 58.6317 22.7767 58.6317L19.4239 56.4904Z" fill="#FFB6B6"/>
<path id="Vector_11" d="M29.9014 91.8226L28.6442 97.8184L38.0741 98.2467L36.6072 91.8226H29.9014Z" fill="#FFB6B6"/>
<path id="Vector_12" d="M59.6583 128.868L58.401 134.864L67.8309 135.292L66.3638 128.868H59.6583Z" fill="#FFB6B6"/>
<path id="Vector_13" d="M43.1035 51.7794L43.9418 55.2055C43.9418 55.2055 20.6813 50.4945 21.9386 62.4861C23.1959 74.4777 28.6443 86.041 28.6443 86.041C28.6443 86.041 28.2252 89.8954 29.0634 90.5378C29.9016 91.1802 29.0634 93.3216 29.0634 93.3216C29.0634 93.3216 36.8169 94.3923 37.0265 92.4651C37.1386 91.1766 37.0681 89.8784 36.8169 88.6106C36.8169 88.6106 37.236 88.6106 36.8169 86.4693C36.3978 84.3279 34.7048 67.0585 33.4475 64.703C33.4475 64.703 44.5704 73.407 50.4379 72.3363C50.4379 72.3363 49.5997 80.9018 52.9526 92.2509C56.3055 103.6 56.3054 104.885 56.3054 104.885C56.3054 104.885 60.287 126.513 59.2392 129.082L59.0296 130.153H66.7831C66.7831 130.153 66.1545 118.804 66.7831 117.305C67.4118 115.806 67.4118 102.958 63.8494 96.5336C61.3266 91.9844 61.7965 78.7937 63.1764 73.5799C64.3353 69.2015 64.6279 65.8317 63.9486 61.3495C63.2222 56.5562 61.0529 54.0506 58.401 51.7794H43.1035Z" fill="#2F2E41"/>
<path id="Vector_14" d="M49.2853 19.552C53.4517 19.552 56.8292 16.1006 56.8292 11.8432C56.8292 7.58566 53.4517 4.13428 49.2853 4.13428C45.1189 4.13428 41.7413 7.58566 41.7413 11.8432C41.7413 16.1006 45.1189 19.552 49.2853 19.552Z" fill="#FFB6B6"/>
<path id="Vector_15" d="M47.2946 17.3036C47.2946 17.3036 49.5997 24.1559 49.3901 25.4407C49.1805 26.7255 56.0958 22.8711 56.0958 22.8711C56.0958 22.8711 53.3716 16.0188 54.2098 14.0916L47.2946 17.3036Z" fill="#A0616A"/>
<path id="Vector_16" d="M55.6768 20.5156L48.3424 23.5135L48.7615 26.0831C48.7615 26.0831 48.1328 26.9397 48.3424 27.368C48.5519 27.7962 45.6182 29.5093 46.0373 30.1517C46.4564 30.7941 43.5226 33.3637 43.7322 34.0062C43.9417 34.6486 37.0264 38.503 40.7984 45.9977C40.7984 45.9977 42.7541 48.5957 42.509 51.6679C42.5004 51.7759 42.4891 51.8844 42.4749 51.9935C42.0558 55.2055 58.401 51.5653 58.401 51.5653V47.9249C58.401 47.9249 59.8679 47.2825 59.6583 44.4988C59.4487 41.715 58.1914 42.9998 59.6583 41.5009C61.1252 40.0019 61.1252 40.2161 60.9156 38.9313C60.8319 38.4182 60.8151 36.5734 60.825 34.5423C60.8443 30.2508 59.4765 26.0728 56.9341 22.657L55.6768 20.5156Z" fill="#60E772"/>
<path id="Vector_17" d="M51.6951 26.0831L38.0741 40.6443L18.1665 56.7045L22.5671 60.3448L59.2391 35.2909C59.2391 35.2909 62.3824 21.5863 51.6951 26.0831Z" fill="#60E772"/>
<path id="Vector_18" d="M30.5303 95.0347C30.5303 95.0347 29.0634 92.4651 28.0156 93.3217L20.6812 99.3174C20.6812 99.3174 7.68888 103.172 20.2621 106.17C20.2621 106.17 27.1774 107.24 28.6443 106.17C30.1112 105.099 32.4163 105.313 33.0449 105.742C33.6736 106.17 41.6366 105.527 41.6366 103.814C41.6366 102.101 37.2448 94.6143 37.2448 94.6143C37.2448 94.6143 34.7213 97.6044 30.5303 95.0347Z" fill="#2F2E41"/>
<path id="Vector_19" d="M60.2868 132.08C60.2868 132.08 58.82 129.51 57.7722 130.367L50.4378 136.363C50.4378 136.363 37.4455 140.217 50.0187 143.215C50.0187 143.215 56.934 144.286 58.4009 143.215C59.8677 142.144 62.1728 142.359 62.8015 142.787C63.4302 143.215 71.3932 142.573 71.3932 140.86C71.3932 139.147 67.0013 131.66 67.0013 131.66C67.0013 131.66 64.4779 134.65 60.2868 132.08Z" fill="#2F2E41"/>
<path id="Vector_20" d="M40.2445 8.78595C40.2445 8.78595 41.52 -2.67169 52.4293 0.581506C52.4293 0.581506 60.147 -1.0226 62.8729 8.82713L65.6397 19.1539L64.3732 18.4813L63.8134 19.798L61.7922 20.3635L60.89 18.6177L60.5098 20.7667L46.5517 23.6504C46.5517 23.6504 51.2723 18.1389 51.2388 10.0669L49.8485 11.6273L40.2445 8.78595Z" fill="#2F2E41"/>
<path id="Vector_21" d="M99.2399 134.222H83.0149V136.144H99.2399V134.222Z" fill="#2F2E41"/>
<path id="Vector_22" d="M99.24 140.95C100.019 140.95 100.651 138.368 100.651 135.183C100.651 131.998 100.019 129.416 99.24 129.416C98.4608 129.416 97.8291 131.998 97.8291 135.183C97.8291 138.368 98.4608 140.95 99.24 140.95Z" fill="#2F2E41"/>
<path id="Vector_23" d="M83.0149 140.95C83.7941 140.95 84.4258 138.368 84.4258 135.183C84.4258 131.998 83.7941 129.416 83.0149 129.416C82.2357 129.416 81.604 131.998 81.604 135.183C81.604 138.368 82.2357 140.95 83.0149 140.95Z" fill="#2F2E41"/>
</g>
</svg>
