<svg width="38" height="38" viewBox="0 0 38 38" fill="none" xmlns="http://www.w3.org/2000/svg">
<g id="UserCircle">
<path id="Vector" d="M18.7996 3.854C15.804 3.854 12.8756 4.7423 10.3849 6.40656C7.89415 8.07082 5.95285 10.4363 4.80649 13.2039C3.66013 15.9714 3.36019 19.0168 3.9446 21.9548C4.52901 24.8929 5.97152 27.5916 8.08973 29.7098C10.2079 31.828 12.9067 33.2705 15.8447 33.8549C18.7828 34.4394 21.8281 34.1394 24.5957 32.993C27.3632 31.8467 29.7287 29.9054 31.393 27.4146C33.0572 24.9239 33.9455 21.9956 33.9455 19C33.9413 14.9843 32.3442 11.1343 29.5047 8.29484C26.6652 5.45534 22.8152 3.85824 18.7996 3.854ZM10.9469 29.1216C11.7898 27.8034 12.9509 26.7186 14.3232 25.9672C15.6956 25.2158 17.235 24.822 18.7996 24.822C20.3641 24.822 21.9036 25.2158 23.2759 25.9672C24.6482 26.7186 25.8093 27.8034 26.6522 29.1216C24.407 30.8677 21.6438 31.8157 18.7996 31.8157C15.9553 31.8157 13.1921 30.8677 10.9469 29.1216ZM14.1393 17.8349C14.1393 16.9132 14.4126 16.0122 14.9247 15.2458C15.4367 14.4794 16.1646 13.8821 17.0161 13.5294C17.8677 13.1766 18.8047 13.0843 19.7087 13.2642C20.6127 13.444 21.4431 13.8878 22.0949 14.5396C22.7466 15.1913 23.1905 16.0217 23.3703 16.9257C23.5501 17.8297 23.4578 18.7668 23.1051 19.6183C22.7524 20.4699 22.1551 21.1977 21.3887 21.7098C20.6223 22.2219 19.7213 22.4952 18.7996 22.4952C17.5636 22.4952 16.3782 22.0042 15.5042 21.1302C14.6302 20.2563 14.1393 19.0709 14.1393 17.8349ZM28.3765 27.5065C27.0771 25.6236 25.25 24.1668 23.1249 23.3195C24.2664 22.4204 25.0994 21.188 25.508 19.7935C25.9165 18.3991 25.8804 16.912 25.4047 15.5391C24.9289 14.1661 24.0371 12.9755 22.8533 12.1329C21.6696 11.2902 20.2526 10.8374 18.7996 10.8374C17.3465 10.8374 15.9295 11.2902 14.7458 12.1329C13.562 12.9755 12.6702 14.1661 12.1944 15.5391C11.7187 16.912 11.6826 18.3991 12.0912 19.7935C12.4997 21.188 13.3327 22.4204 14.4742 23.3195C12.3491 24.1668 10.522 25.6236 9.22263 27.5065C7.5807 25.6601 6.50753 23.3784 6.13233 20.9362C5.75714 18.494 6.09593 15.9954 7.1079 13.7413C8.11987 11.4871 9.76188 9.57362 11.8362 8.2311C13.9105 6.88858 16.3287 6.17432 18.7996 6.17432C21.2704 6.17432 23.6886 6.88858 25.7629 8.2311C27.8372 9.57362 29.4792 11.4871 30.4912 13.7413C31.5032 15.9954 31.842 18.494 31.4668 20.9362C31.0916 23.3784 30.0184 25.6601 28.3765 27.5065Z" fill="black"/>
</g>
</svg>
