<svg width="44" height="44" viewBox="0 0 44 44" fill="none" xmlns="http://www.w3.org/2000/svg">
<g id="WhatsappLogo">
<path id="Vector" d="M31.7358 24.4534L26.3614 21.7662C26.1499 21.6608 25.9142 21.613 25.6783 21.6278C25.4424 21.6425 25.2146 21.7192 25.0178 21.8502L22.5506 23.4961C21.4181 22.8735 20.486 21.9414 19.8634 20.8089L21.5093 18.3417C21.6403 18.1449 21.717 17.9171 21.7317 17.6812C21.7465 17.4453 21.6987 17.2097 21.5933 16.9981L18.9061 11.6237C18.7947 11.3988 18.6226 11.2095 18.4092 11.0775C18.1957 10.9454 17.9496 10.8757 17.6986 10.8763C15.9168 10.8763 14.2081 11.5841 12.9482 12.844C11.6884 14.1039 10.9806 15.8126 10.9806 17.5943C10.985 21.5127 12.5436 25.2694 15.3143 28.0401C18.0851 30.8109 21.8417 32.3694 25.7601 32.3739C26.6424 32.3739 27.5159 32.2001 28.331 31.8625C29.1461 31.5249 29.8867 31.0301 30.5105 30.4062C31.1343 29.7824 31.6291 29.0418 31.9668 28.2268C32.3044 27.4117 32.4781 26.5381 32.4781 25.6559C32.4783 25.4063 32.409 25.1616 32.2778 24.9492C32.1467 24.7368 31.959 24.5651 31.7358 24.4534ZM25.7601 29.6867C22.5541 29.6831 19.4805 28.408 17.2135 26.141C14.9465 23.874 13.6713 20.8003 13.6678 17.5943C13.6675 16.6624 13.9902 15.7592 14.5809 15.0384C15.1715 14.3176 15.9937 13.8237 16.9075 13.6408L18.8356 17.5036L17.1947 19.9456C17.0721 20.1295 16.9968 20.3409 16.9754 20.5609C16.954 20.7809 16.9872 21.0028 17.0721 21.2069C18.0334 23.4917 19.851 25.3093 22.1358 26.2706C22.3405 26.3593 22.5641 26.3956 22.7863 26.3762C23.0086 26.3569 23.2225 26.2825 23.4089 26.1597L25.8626 24.5239L29.7254 26.452C29.5411 27.3668 29.0451 28.1894 28.3219 28.7793C27.5988 29.3692 26.6934 29.6899 25.7601 29.6867ZM21.7294 4.15836C18.7138 4.1577 15.7494 4.93779 13.1247 6.4227C10.5001 7.90761 8.30456 10.0468 6.7519 12.6319C5.19925 15.2171 4.34235 18.1602 4.2646 21.1748C4.18685 24.1894 4.8909 27.1727 6.30823 29.8345L4.402 35.5532C4.2441 36.0266 4.22119 36.5347 4.33582 37.0205C4.45046 37.5063 4.69812 37.9505 5.05104 38.3034C5.40397 38.6563 5.8482 38.904 6.33397 39.0186C6.81973 39.1333 7.32783 39.1104 7.8013 38.9525L13.52 37.0462C15.8625 38.2922 18.4581 38.9881 21.1097 39.0811C23.7613 39.1742 26.3992 38.6619 28.8233 37.5832C31.2474 36.5045 33.3939 34.8878 35.0998 32.8557C36.8058 30.8236 38.0264 28.4296 38.669 25.8553C39.3115 23.2811 39.3592 20.5942 38.8084 17.9988C38.2575 15.4034 37.1226 12.9675 35.4899 10.8762C33.8571 8.78486 31.7693 7.09297 29.385 5.92897C27.0007 4.76497 24.3826 4.15944 21.7294 4.15836ZM21.7294 36.4047C19.1311 36.4064 16.5785 35.7222 14.3295 34.4212C14.1648 34.3257 13.9818 34.2663 13.7924 34.2469C13.603 34.2275 13.4117 34.2485 13.2311 34.3087L6.94979 36.4047L9.04413 30.1234C9.1045 29.9429 9.12583 29.7516 9.10672 29.5623C9.08761 29.3729 9.0285 29.1898 8.93328 29.025C7.30412 26.2083 6.65002 22.9327 7.07245 19.7064C7.49487 16.48 8.97022 13.4833 11.2696 11.181C13.569 8.87869 16.5639 7.39956 19.7897 6.97306C23.0155 6.54656 26.2919 7.19652 29.1106 8.82212C31.9293 10.4477 34.1328 12.9581 35.3792 15.9638C36.6256 18.9695 36.8453 22.3025 36.0041 25.4458C35.163 28.5891 33.308 31.3669 30.727 33.3483C28.146 35.3298 24.9832 36.4041 21.7294 36.4047Z" fill="black"/>
</g>
</svg>
